<?xml version="1.0" encoding="UTF-8" standalone="no"?>
<!DOCTYPE svg PUBLIC "-//W3C//DTD SVG 1.0//EN" "http://www.w3.org/TR/2001/PR-SVG-20010719/DTD/svg10.dtd">
<svg width="30cm" height="25cm" viewBox="108 142 582 491" xmlns="http://www.w3.org/2000/svg" xmlns:xlink="http://www.w3.org/1999/xlink">
  <g>
    <rect style="fill: #b3b3b3" x="187.553" y="175" width="32.7632" height="76.4474"/>
    <rect style="fill: none; fill-opacity:0; stroke-width: 1.6; stroke: #000000" x="187.553" y="175" width="32.7632" height="76.4474"/>
    <rect style="fill: none; fill-opacity:0; stroke-width: 0.2; stroke: #000000" x="190.829" y="179.587" width="26.2105" height="8.73684"/>
    <rect style="fill: none; fill-opacity:0; stroke-width: 0.2; stroke: #000000" x="190.829" y="188.324" width="26.2105" height="8.73684"/>
    <rect style="fill: none; fill-opacity:0; stroke-width: 0.2; stroke: #000000" x="190.829" y="197.061" width="26.2105" height="8.73684"/>
    <rect style="fill: none; fill-opacity:0; stroke-width: 0.2; stroke: #000000" x="190.829" y="205.797" width="26.2105" height="8.73684"/>
    <rect style="fill: none; fill-opacity:0; stroke-width: 0.2; stroke: #000000" x="190.829" y="216.282" width="16.3816" height="5.24211"/>
    <ellipse style="fill: #00ff00" cx="215.401" cy="217.155" rx="1.14671" ry="1.14671"/>
    <ellipse style="fill: none; fill-opacity:0; stroke-width: 0.2; stroke: #000000" cx="215.401" cy="217.155" rx="1.14671" ry="1.14671"/>
    <ellipse style="fill: #ffff00" cx="215.401" cy="220.65" rx="1.14671" ry="1.14671"/>
    <ellipse style="fill: none; fill-opacity:0; stroke-width: 0.2; stroke: #000000" cx="215.401" cy="220.65" rx="1.14671" ry="1.14671"/>
    <rect style="fill: #ffffff" x="208.849" y="218.029" width="3.93158" height="3.49474"/>
    <rect style="fill: none; fill-opacity:0; stroke-width: 0.2; stroke: #000000" x="208.849" y="218.029" width="3.93158" height="3.49474"/>
    <path style="fill: none; fill-opacity:0; stroke-width: 0.2; stroke: #000000" d="M 193.013 228.513 L 193.013,247.625"/>
    <path style="fill: none; fill-opacity:0; stroke-width: 0.2; stroke: #000000" d="M 198.474 228.513 L 198.474,247.625"/>
    <path style="fill: none; fill-opacity:0; stroke-width: 0.2; stroke: #000000" d="M 203.934 228.513 L 203.934,247.625"/>
    <path style="fill: none; fill-opacity:0; stroke-width: 0.2; stroke: #000000" d="M 209.395 228.513 L 209.395,247.625"/>
    <path style="fill: none; fill-opacity:0; stroke-width: 0.2; stroke: #000000" d="M 214.855 228.513 L 214.855,247.625"/>
    <path style="fill: none; fill-opacity:0; stroke-width: 0.2; stroke: #000000" d="M 220.316 228.513 L 220.316,247.625"/>
    <polygon style="fill: #999999" points="181,258 187.553,244.895 187.553,251.447 220.316,251.447 220.316,244.895 229.053,258 "/>
    <polygon style="fill: none; fill-opacity:0; stroke-width: 0.2; stroke: #000000" points="181,258 187.553,244.895 187.553,251.447 220.316,251.447 220.316,244.895 229.053,258 "/>
    <text font-size="14.4" style="fill: #000000;text-anchor:middle;font-family:sans-serif;font-style:normal;font-weight:normal" x="205.026" y="275.484">
      <tspan x="205.026" y="275.484">ThinLinc server running</tspan>
      <tspan x="205.026" y="293.484">master and agent services</tspan>
    </text>
  </g>
  <g>
    <rect style="fill: #b3b3b3" x="376.927" y="177" width="32.7632" height="76.4474"/>
    <rect style="fill: none; fill-opacity:0; stroke-width: 1.6; stroke: #000000" x="376.927" y="177" width="32.7632" height="76.4474"/>
    <rect style="fill: none; fill-opacity:0; stroke-width: 0.2; stroke: #000000" x="380.203" y="181.587" width="26.2105" height="8.73684"/>
    <rect style="fill: none; fill-opacity:0; stroke-width: 0.2; stroke: #000000" x="380.203" y="190.324" width="26.2105" height="8.73684"/>
    <rect style="fill: none; fill-opacity:0; stroke-width: 0.2; stroke: #000000" x="380.203" y="199.061" width="26.2105" height="8.73684"/>
    <rect style="fill: none; fill-opacity:0; stroke-width: 0.2; stroke: #000000" x="380.203" y="207.797" width="26.2105" height="8.73684"/>
    <rect style="fill: none; fill-opacity:0; stroke-width: 0.2; stroke: #000000" x="380.203" y="218.282" width="16.3816" height="5.24211"/>
    <ellipse style="fill: #00ff00" cx="404.775" cy="219.155" rx="1.14671" ry="1.14671"/>
    <ellipse style="fill: none; fill-opacity:0; stroke-width: 0.2; stroke: #000000" cx="404.775" cy="219.155" rx="1.14671" ry="1.14671"/>
    <ellipse style="fill: #ffff00" cx="404.775" cy="222.65" rx="1.14671" ry="1.14671"/>
    <ellipse style="fill: none; fill-opacity:0; stroke-width: 0.2; stroke: #000000" cx="404.775" cy="222.65" rx="1.14671" ry="1.14671"/>
    <rect style="fill: #ffffff" x="398.223" y="220.029" width="3.93158" height="3.49474"/>
    <rect style="fill: none; fill-opacity:0; stroke-width: 0.2; stroke: #000000" x="398.223" y="220.029" width="3.93158" height="3.49474"/>
    <path style="fill: none; fill-opacity:0; stroke-width: 0.2; stroke: #000000" d="M 382.387 230.513 L 382.387,249.625"/>
    <path style="fill: none; fill-opacity:0; stroke-width: 0.2; stroke: #000000" d="M 387.848 230.513 L 387.848,249.625"/>
    <path style="fill: none; fill-opacity:0; stroke-width: 0.2; stroke: #000000" d="M 393.308 230.513 L 393.308,249.625"/>
    <path style="fill: none; fill-opacity:0; stroke-width: 0.2; stroke: #000000" d="M 398.769 230.513 L 398.769,249.625"/>
    <path style="fill: none; fill-opacity:0; stroke-width: 0.2; stroke: #000000" d="M 404.229 230.513 L 404.229,249.625"/>
    <path style="fill: none; fill-opacity:0; stroke-width: 0.2; stroke: #000000" d="M 409.69 230.513 L 409.69,249.625"/>
    <polygon style="fill: #999999" points="370.374,260 376.927,246.895 376.927,253.447 409.69,253.447 409.69,246.895 418.427,260 "/>
    <polygon style="fill: none; fill-opacity:0; stroke-width: 0.2; stroke: #000000" points="370.374,260 376.927,246.895 376.927,253.447 409.69,253.447 409.69,246.895 418.427,260 "/>
    <text font-size="14.4" style="fill: #000000;text-anchor:middle;font-family:sans-serif;font-style:normal;font-weight:normal" x="394.4" y="277.484">
      <tspan x="394.4" y="277.484">ThinLinc server running</tspan>
      <tspan x="394.4" y="295.484">the agent service</tspan>
    </text>
  </g>
  <g>
    <rect style="fill: #b3b3b3" x="561.929" y="178" width="32.7632" height="76.4474"/>
    <rect style="fill: none; fill-opacity:0; stroke-width: 1.6; stroke: #000000" x="561.929" y="178" width="32.7632" height="76.4474"/>
    <rect style="fill: none; fill-opacity:0; stroke-width: 0.2; stroke: #000000" x="565.205" y="182.587" width="26.2105" height="8.73684"/>
    <rect style="fill: none; fill-opacity:0; stroke-width: 0.2; stroke: #000000" x="565.205" y="191.324" width="26.2105" height="8.73684"/>
    <rect style="fill: none; fill-opacity:0; stroke-width: 0.2; stroke: #000000" x="565.205" y="200.061" width="26.2105" height="8.73684"/>
    <rect style="fill: none; fill-opacity:0; stroke-width: 0.2; stroke: #000000" x="565.205" y="208.797" width="26.2105" height="8.73684"/>
    <rect style="fill: none; fill-opacity:0; stroke-width: 0.2; stroke: #000000" x="565.205" y="219.282" width="16.3816" height="5.24211"/>
    <ellipse style="fill: #00ff00" cx="589.777" cy="220.155" rx="1.14671" ry="1.14671"/>
    <ellipse style="fill: none; fill-opacity:0; stroke-width: 0.2; stroke: #000000" cx="589.777" cy="220.155" rx="1.14671" ry="1.14671"/>
    <ellipse style="fill: #ffff00" cx="589.777" cy="223.65" rx="1.14671" ry="1.14671"/>
    <ellipse style="fill: none; fill-opacity:0; stroke-width: 0.2; stroke: #000000" cx="589.777" cy="223.65" rx="1.14671" ry="1.14671"/>
    <rect style="fill: #ffffff" x="583.225" y="221.029" width="3.93158" height="3.49474"/>
    <rect style="fill: none; fill-opacity:0; stroke-width: 0.2; stroke: #000000" x="583.225" y="221.029" width="3.93158" height="3.49474"/>
    <path style="fill: none; fill-opacity:0; stroke-width: 0.2; stroke: #000000" d="M 567.389 231.513 L 567.389,250.625"/>
    <path style="fill: none; fill-opacity:0; stroke-width: 0.2; stroke: #000000" d="M 572.85 231.513 L 572.85,250.625"/>
    <path style="fill: none; fill-opacity:0; stroke-width: 0.2; stroke: #000000" d="M 578.31 231.513 L 578.31,250.625"/>
    <path style="fill: none; fill-opacity:0; stroke-width: 0.2; stroke: #000000" d="M 583.771 231.513 L 583.771,250.625"/>
    <path style="fill: none; fill-opacity:0; stroke-width: 0.2; stroke: #000000" d="M 589.231 231.513 L 589.231,250.625"/>
    <path style="fill: none; fill-opacity:0; stroke-width: 0.2; stroke: #000000" d="M 594.692 231.513 L 594.692,250.625"/>
    <polygon style="fill: #999999" points="555.376,261 561.929,247.895 561.929,254.447 594.692,254.447 594.692,247.895 603.429,261 "/>
    <polygon style="fill: none; fill-opacity:0; stroke-width: 0.2; stroke: #000000" points="555.376,261 561.929,247.895 561.929,254.447 594.692,254.447 594.692,247.895 603.429,261 "/>
    <text font-size="14.4" style="fill: #000000;text-anchor:middle;font-family:sans-serif;font-style:normal;font-weight:normal" x="579.402" y="278.484">
      <tspan x="579.402" y="278.484">ThinLinc server running</tspan>
      <tspan x="579.402" y="296.484">the agent service</tspan>
    </text>
  </g>
  <text font-size="14.4" style="fill: #000000;text-anchor:start;font-family:sans-serif;font-style:normal;font-weight:normal" x="208.002" y="182">
    <tspan x="208.002" y="182"></tspan>
  </text>
  <text font-size="14.4" style="fill: #000000;text-anchor:start;font-family:sans-serif;font-style:normal;font-weight:normal" x="141.002" y="158">
    <tspan x="141.002" y="158">thinlinc.example.com</tspan>
  </text>
  <text font-size="14.4" style="fill: #000000;text-anchor:start;font-family:sans-serif;font-style:normal;font-weight:normal" x="324.902" y="159.2">
    <tspan x="324.902" y="159.2">tlagent1.example.com</tspan>
  </text>
  <text font-size="14.4" style="fill: #000000;text-anchor:start;font-family:sans-serif;font-style:normal;font-weight:normal" x="513.902" y="159.2">
    <tspan x="513.902" y="159.2">tlagent2.example.com</tspan>
  </text>
  <g>
    <path style="fill: #ffffff" d="M 349.887 410.025 C 329.514,409.687 290.002,416.774 295.558,431.962 C 301.115,447.149 327.662,450.524 338.774,446.136 C 349.887,441.749 321.488,467.398 375.817,474.148 C 430.145,480.898 457.927,470.098 449.901,462.336 C 441.875,454.574 497.439,480.561 523.368,465.711 C 549.298,450.861 496.821,436.687 507.934,438.712 C 519.047,440.737 553.002,438.037 541.889,412.724 C 530.777,387.412 430.762,406.987 441.875,403.275 C 452.988,399.562 425.206,381 390.634,384.712 C 356.061,388.425 353.609,395.162 349.904,410.011 L 349.887,410.025z"/>
    <path style="fill: none; fill-opacity:0; stroke-width: 2; stroke: #000000" d="M 349.887 410.025 C 329.514,409.687 290.002,416.774 295.558,431.962 C 301.115,447.149 327.662,450.524 338.774,446.136 C 349.887,441.749 321.488,467.398 375.817,474.148 C 430.145,480.898 457.927,470.098 449.901,462.336 C 441.875,454.574 497.439,480.561 523.368,465.711 C 549.298,450.861 496.821,436.687 507.934,438.712 C 519.047,440.737 553.002,438.037 541.889,412.724 C 530.777,387.412 430.762,406.987 441.875,403.275 C 452.988,399.562 425.206,381 390.634,384.712 C 356.061,388.425 353.609,395.162 349.904,410.011 L 349.887,410.025"/>
    <text font-size="14.4" style="fill: #000000;text-anchor:middle;font-family:sans-serif;font-style:normal;font-weight:normal" x="428.552" y="439.01">
      <tspan x="428.552" y="439.01">LAN/WAN</tspan>
    </text>
  </g>
  <g>
    <line style="fill: none; fill-opacity:0; stroke-width: 2; stroke: #000000" x1="239.002" y1="557.003" x2="560.002" y2="555.997"/>
    <line style="fill: none; fill-opacity:0; stroke-width: 2; stroke: #000000" x1="258.941" y1="556.941" x2="259.02" y2="582.084"/>
    <line style="fill: none; fill-opacity:0; stroke-width: 2; stroke: #000000" x1="335.94" y1="556.699" x2="336.02" y2="582.084"/>
    <line style="fill: none; fill-opacity:0; stroke-width: 2; stroke: #000000" x1="402.943" y1="556.489" x2="403.02" y2="581.084"/>
    <line style="fill: none; fill-opacity:0; stroke-width: 2; stroke: #000000" x1="462.942" y1="556.301" x2="463.02" y2="581.084"/>
    <line style="fill: none; fill-opacity:0; stroke-width: 2; stroke: #000000" x1="522.942" y1="556.113" x2="523.02" y2="581.084"/>
    <line style="fill: none; fill-opacity:0; stroke-width: 2; stroke: #000000" x1="408.275" y1="556.472" x2="408.023" y2="476.32"/>
  </g>
  <text font-size="14.4" style="fill: #000000;text-anchor:start;font-family:sans-serif;font-style:normal;font-weight:normal" x="432.002" y="493">
    <tspan x="432.002" y="493">Clients connect via port 22/300</tspan>
  </text>
  <g>
    <line style="fill: none; fill-opacity:0; stroke-width: 2; stroke: #000000" x1="160.002" y1="330" x2="641.002" y2="330"/>
    <line style="fill: none; fill-opacity:0; stroke-width: 2; stroke: #000000" x1="251.002" y1="330" x2="251.002" y2="329"/>
    <line style="fill: none; fill-opacity:0; stroke-width: 2; stroke: #000000" x1="199.002" y1="330" x2="199.002" y2="296"/>
    <line style="fill: none; fill-opacity:0; stroke-width: 2; stroke: #000000" x1="399.422" y1="330" x2="399.422" y2="384.257"/>
    <line style="fill: none; fill-opacity:0; stroke-width: 2; stroke: #000000" x1="395.002" y1="330" x2="395.002" y2="299"/>
    <line style="fill: none; fill-opacity:0; stroke-width: 2; stroke: #000000" x1="508.002" y1="330" x2="508.002" y2="330"/>
    <line style="fill: none; fill-opacity:0; stroke-width: 2; stroke: #000000" x1="576.002" y1="330" x2="576.002" y2="296"/>
  </g>
  <text font-size="14.4" style="fill: #000000;text-anchor:start;font-family:sans-serif;font-style:normal;font-weight:normal" x="581.302" y="582.7">
    <tspan x="581.302" y="582.7">ThinLinc clients</tspan>
  </text>
  <g>
    <rect style="fill: #b3b3b3" x="242.526" y="582" width="30.1694" height="22.6271"/>
    <rect style="fill: none; fill-opacity:0; stroke-width: 1; stroke-dasharray: 4; stroke: #000000" x="242.526" y="582" width="30.1694" height="22.6271"/>
    <rect style="fill: #000000" x="245.794" y="585.268" width="23.6327" height="15.5875"/>
    <polygon style="fill: #b3b3b3" points="246.611,604.627 262.136,604.627 262.136,608.147 247.429,608.147 "/>
    <polygon style="fill: none; fill-opacity:0; stroke-width: 1; stroke-dasharray: 4; stroke: #000000" points="246.611,604.627 262.136,604.627 262.136,608.147 247.429,608.147 "/>
    <polygon style="fill: #b3b3b3" points="262.136,604.627 268.61,604.627 267.793,608.147 262.136,608.147 "/>
    <polygon style="fill: none; fill-opacity:0; stroke-width: 1; stroke-dasharray: 4; stroke: #000000" points="262.136,604.627 268.61,604.627 267.793,608.147 262.136,608.147 "/>
    <rect style="fill: #ffffff" x="263.192" y="605.683" width="1.40791" height="1.40791"/>
    <rect style="fill: none; fill-opacity:0; stroke-width: 0.5; stroke-dasharray: 4; stroke: #000000" x="263.192" y="605.683" width="1.40791" height="1.40791"/>
    <polygon style="fill: #b3b3b3" points="254.594,608.147 260.628,608.147 260.628,609.907 263.645,609.907 263.645,611.667 251.577,611.667 251.577,609.907 254.594,609.907 "/>
    <polygon style="fill: none; fill-opacity:0; stroke-width: 1; stroke-dasharray: 4; stroke: #000000" points="254.594,608.147 260.628,608.147 260.628,609.907 263.645,609.907 263.645,611.667 251.577,611.667 251.577,609.907 254.594,609.907 "/>
    <text font-size="14.4" style="fill: #000000;text-anchor:middle;font-family:sans-serif;font-style:normal;font-weight:normal" x="257.611" y="627.972">
      <tspan x="257.611" y="627.972"></tspan>
    </text>
  </g>
  <g>
    <rect style="fill: #b3b3b3" x="319.726" y="581.4" width="30.1694" height="22.6271"/>
    <rect style="fill: none; fill-opacity:0; stroke-width: 1; stroke-dasharray: 4; stroke: #000000" x="319.726" y="581.4" width="30.1694" height="22.6271"/>
    <rect style="fill: #000000" x="322.994" y="584.668" width="23.6327" height="15.5875"/>
    <polygon style="fill: #b3b3b3" points="323.811,604.027 339.336,604.027 339.336,607.547 324.629,607.547 "/>
    <polygon style="fill: none; fill-opacity:0; stroke-width: 1; stroke-dasharray: 4; stroke: #000000" points="323.811,604.027 339.336,604.027 339.336,607.547 324.629,607.547 "/>
    <polygon style="fill: #b3b3b3" points="339.336,604.027 345.81,604.027 344.993,607.547 339.336,607.547 "/>
    <polygon style="fill: none; fill-opacity:0; stroke-width: 1; stroke-dasharray: 4; stroke: #000000" points="339.336,604.027 345.81,604.027 344.993,607.547 339.336,607.547 "/>
    <rect style="fill: #ffffff" x="340.392" y="605.083" width="1.40791" height="1.40791"/>
    <rect style="fill: none; fill-opacity:0; stroke-width: 0.5; stroke-dasharray: 4; stroke: #000000" x="340.392" y="605.083" width="1.40791" height="1.40791"/>
    <polygon style="fill: #b3b3b3" points="331.794,607.547 337.828,607.547 337.828,609.307 340.845,609.307 340.845,611.067 328.777,611.067 328.777,609.307 331.794,609.307 "/>
    <polygon style="fill: none; fill-opacity:0; stroke-width: 1; stroke-dasharray: 4; stroke: #000000" points="331.794,607.547 337.828,607.547 337.828,609.307 340.845,609.307 340.845,611.067 328.777,611.067 328.777,609.307 331.794,609.307 "/>
    <text font-size="14.4" style="fill: #000000;text-anchor:middle;font-family:sans-serif;font-style:normal;font-weight:normal" x="334.811" y="627.372">
      <tspan x="334.811" y="627.372"></tspan>
    </text>
  </g>
  <g>
    <rect style="fill: #b3b3b3" x="387.726" y="581.4" width="30.1694" height="22.6271"/>
    <rect style="fill: none; fill-opacity:0; stroke-width: 1; stroke-dasharray: 4; stroke: #000000" x="387.726" y="581.4" width="30.1694" height="22.6271"/>
    <rect style="fill: #000000" x="390.994" y="584.668" width="23.6327" height="15.5875"/>
    <polygon style="fill: #b3b3b3" points="391.811,604.027 407.336,604.027 407.336,607.547 392.629,607.547 "/>
    <polygon style="fill: none; fill-opacity:0; stroke-width: 1; stroke-dasharray: 4; stroke: #000000" points="391.811,604.027 407.336,604.027 407.336,607.547 392.629,607.547 "/>
    <polygon style="fill: #b3b3b3" points="407.336,604.027 413.81,604.027 412.993,607.547 407.336,607.547 "/>
    <polygon style="fill: none; fill-opacity:0; stroke-width: 1; stroke-dasharray: 4; stroke: #000000" points="407.336,604.027 413.81,604.027 412.993,607.547 407.336,607.547 "/>
    <rect style="fill: #ffffff" x="408.392" y="605.083" width="1.40791" height="1.40791"/>
    <rect style="fill: none; fill-opacity:0; stroke-width: 0.5; stroke-dasharray: 4; stroke: #000000" x="408.392" y="605.083" width="1.40791" height="1.40791"/>
    <polygon style="fill: #b3b3b3" points="399.794,607.547 405.828,607.547 405.828,609.307 408.845,609.307 408.845,611.067 396.777,611.067 396.777,609.307 399.794,609.307 "/>
    <polygon style="fill: none; fill-opacity:0; stroke-width: 1; stroke-dasharray: 4; stroke: #000000" points="399.794,607.547 405.828,607.547 405.828,609.307 408.845,609.307 408.845,611.067 396.777,611.067 396.777,609.307 399.794,609.307 "/>
    <text font-size="14.4" style="fill: #000000;text-anchor:middle;font-family:sans-serif;font-style:normal;font-weight:normal" x="402.811" y="627.372">
      <tspan x="402.811" y="627.372"></tspan>
    </text>
  </g>
  <g>
    <rect style="fill: #b3b3b3" x="507.726" y="580.4" width="30.1694" height="22.6271"/>
    <rect style="fill: none; fill-opacity:0; stroke-width: 1; stroke-dasharray: 4; stroke: #000000" x="507.726" y="580.4" width="30.1694" height="22.6271"/>
    <rect style="fill: #000000" x="510.994" y="583.668" width="23.6327" height="15.5875"/>
    <polygon style="fill: #b3b3b3" points="511.811,603.027 527.336,603.027 527.336,606.547 512.629,606.547 "/>
    <polygon style="fill: none; fill-opacity:0; stroke-width: 1; stroke-dasharray: 4; stroke: #000000" points="511.811,603.027 527.336,603.027 527.336,606.547 512.629,606.547 "/>
    <polygon style="fill: #b3b3b3" points="527.336,603.027 533.81,603.027 532.993,606.547 527.336,606.547 "/>
    <polygon style="fill: none; fill-opacity:0; stroke-width: 1; stroke-dasharray: 4; stroke: #000000" points="527.336,603.027 533.81,603.027 532.993,606.547 527.336,606.547 "/>
    <rect style="fill: #ffffff" x="528.392" y="604.083" width="1.40791" height="1.40791"/>
    <rect style="fill: none; fill-opacity:0; stroke-width: 0.5; stroke-dasharray: 4; stroke: #000000" x="528.392" y="604.083" width="1.40791" height="1.40791"/>
    <polygon style="fill: #b3b3b3" points="519.794,606.547 525.828,606.547 525.828,608.307 528.845,608.307 528.845,610.067 516.777,610.067 516.777,608.307 519.794,608.307 "/>
    <polygon style="fill: none; fill-opacity:0; stroke-width: 1; stroke-dasharray: 4; stroke: #000000" points="519.794,606.547 525.828,606.547 525.828,608.307 528.845,608.307 528.845,610.067 516.777,610.067 516.777,608.307 519.794,608.307 "/>
    <text font-size="14.4" style="fill: #000000;text-anchor:middle;font-family:sans-serif;font-style:normal;font-weight:normal" x="522.811" y="626.372">
      <tspan x="522.811" y="626.372"></tspan>
    </text>
  </g>
  <g>
    <rect style="fill: #b3b3b3" x="447.726" y="581.4" width="30.1694" height="22.6271"/>
    <rect style="fill: none; fill-opacity:0; stroke-width: 1; stroke-dasharray: 4; stroke: #000000" x="447.726" y="581.4" width="30.1694" height="22.6271"/>
    <rect style="fill: #000000" x="450.994" y="584.668" width="23.6327" height="15.5875"/>
    <polygon style="fill: #b3b3b3" points="451.811,604.027 467.336,604.027 467.336,607.547 452.629,607.547 "/>
    <polygon style="fill: none; fill-opacity:0; stroke-width: 1; stroke-dasharray: 4; stroke: #000000" points="451.811,604.027 467.336,604.027 467.336,607.547 452.629,607.547 "/>
    <polygon style="fill: #b3b3b3" points="467.336,604.027 473.81,604.027 472.993,607.547 467.336,607.547 "/>
    <polygon style="fill: none; fill-opacity:0; stroke-width: 1; stroke-dasharray: 4; stroke: #000000" points="467.336,604.027 473.81,604.027 472.993,607.547 467.336,607.547 "/>
    <rect style="fill: #ffffff" x="468.392" y="605.083" width="1.40791" height="1.40791"/>
    <rect style="fill: none; fill-opacity:0; stroke-width: 0.5; stroke-dasharray: 4; stroke: #000000" x="468.392" y="605.083" width="1.40791" height="1.40791"/>
    <polygon style="fill: #b3b3b3" points="459.794,607.547 465.828,607.547 465.828,609.307 468.845,609.307 468.845,611.067 456.777,611.067 456.777,609.307 459.794,609.307 "/>
    <polygon style="fill: none; fill-opacity:0; stroke-width: 1; stroke-dasharray: 4; stroke: #000000" points="459.794,607.547 465.828,607.547 465.828,609.307 468.845,609.307 468.845,611.067 456.777,611.067 456.777,609.307 459.794,609.307 "/>
    <text font-size="14.4" style="fill: #000000;text-anchor:middle;font-family:sans-serif;font-style:normal;font-weight:normal" x="462.811" y="627.372">
      <tspan x="462.811" y="627.372"></tspan>
    </text>
  </g>
</svg>
