<?xml version="1.0" encoding="UTF-8" standalone="no"?>
<!-- Created with Inkscape (http://www.inkscape.org/) -->

<svg
   width="81"
   height="306"
   viewBox="0 0 21.431249 80.96249"
   version="1.1"
   id="svg14833"
   xml:space="preserve"
   xmlns="http://www.w3.org/2000/svg"
   xmlns:svg="http://www.w3.org/2000/svg"><defs
     id="defs14830"><linearGradient
       id="linearGradient24555"><stop
         style="stop-color:#7f7f7f;stop-opacity:1;"
         offset="0"
         id="stop24551" /><stop
         style="stop-color:#a9a9a9;stop-opacity:0;"
         offset="1"
         id="stop24553" /></linearGradient></defs><g
     id="layer1"
     transform="translate(-544.23688,-106.89197)" /><path
     id="path2479"
     style="fill:#dadad7;fill-opacity:1;stroke:#b8b8b2;stroke-width:0.264583;stroke-linecap:butt;stroke-dasharray:none;stroke-opacity:1"
     d="m 15.874971,12.567708 h 3.964397 c 0.808605,0 1.459572,0.671406 1.459572,1.505395 v 13.12879 c 0,0.833988 -0.650967,1.505395 -1.459572,1.505395 h -3.964407" /><path
     style="fill:none;fill-opacity:1;stroke:#000000;stroke-width:0.264583;stroke-linecap:round;stroke-dasharray:none;stroke-opacity:1"
     d="m 19.446877,18.388536 -1.777959,2.04912 a 0.30493494,0.30493494 89.999943 0 0 10e-7,0.399686 l 1.777958,2.049111"
     id="path39783" /><path
     id="path8668"
     style="fill:none;fill-opacity:1;stroke:#dadad7;stroke-width:0.264583;stroke-linecap:butt;stroke-dasharray:none;stroke-opacity:1"
     d="M 0.2645835,0.13241875 H 12.594298 c 1.744217,0 3.148409,1.38720065 3.148409,3.11031165 V 77.719822 c 0,1.72311 -1.404192,3.110312 -3.148409,3.110312 H 0.26458331" /><path
     id="rect1640-1"
     style="fill:#00249c;stroke-width:0.38462;stroke-linecap:round;stroke-linejoin:round"
     d="m 5.1593127,5.0270792 c -0.51303,0 -0.926042,0.413012 -0.926042,0.926041 V 11.50937 c 0,0.513029 0.413012,0.926042 0.926042,0.926042 h 0.926041 V 9.6572875 c 0,-0.5114013 0.414571,-0.9260423 0.926042,-0.9260423 0.511471,0 0.926041,-0.414567 0.926041,-0.926041 0,-0.511401 0.414644,-0.926042 0.926042,-0.926042 h 2.7781243 v -0.926042 c 0,-0.513029 -0.413012,-0.926041 -0.926042,-0.926041 z m 3.704166,3.704166 c -0.511398,0 -0.926042,0.414641 -0.926042,0.9260423 v 2.7781245 h 2.7781243 c 0.51303,0 0.926042,-0.413013 0.926042,-0.926042 V 8.7312452 Z" /><g
     id="g46633"
     transform="translate(-6.4981178,83.891039)"><path
       style="fill:none;stroke:#000000;stroke-width:0.264583;stroke-linecap:round;stroke-linejoin:round;stroke-dasharray:none;stroke-opacity:1"
       id="path46761-4"
       d="m 53.980518,32.7867 a 0.52916664,0.52916664 0 0 1 -0.259696,0.469879 0.52916664,0.52916664 0 0 1 -0.536868,9.91e-4 0.52916664,0.52916664 0 0 1 -0.26143,-0.468916"
       transform="matrix(0.70710678,-0.70710678,-0.70710678,-0.70710678,0,0)" /><path
       style="fill:none;stroke:#000000;stroke-width:0.264583;stroke-linecap:round;stroke-linejoin:round;stroke-dasharray:none;stroke-opacity:1"
       d="m 13.930335,-60.913216 0.714946,0.714968"
       id="path46763-7" /><path
       style="fill:none;stroke:#000000;stroke-width:0.264583;stroke-linecap:round;stroke-linejoin:round;stroke-dasharray:none;stroke-opacity:1"
       d="m 14.975693,-61.364568 0.094,0.094"
       id="path46763-9-7" /><path
       style="fill:none;stroke:#000000;stroke-width:0.264583;stroke-linecap:round;stroke-linejoin:round;stroke-dasharray:none;stroke-opacity:1"
       id="path46761-4-11"
       d="m 52.922187,33.204039 a 0.52916664,0.52916664 0 0 1 -0.259696,0.469879 0.52916664,0.52916664 0 0 1 -0.536868,9.91e-4 0.52916664,0.52916664 0 0 1 -0.261429,-0.468916"
       transform="matrix(0.70710678,-0.70710678,-0.70710678,-0.70710678,0,0)" /><path
       style="fill:none;stroke:#000000;stroke-width:0.264583;stroke-linecap:round;stroke-linejoin:round;stroke-dasharray:none;stroke-opacity:1"
       d="m 12.966294,-60.380552 0.897144,0.897208"
       id="path46763-7-08" /><path
       style="fill:none;stroke:#000000;stroke-width:0.264583;stroke-linecap:round;stroke-linejoin:round;stroke-dasharray:none;stroke-opacity:1"
       id="path46761-4-11-6"
       d="m 51.86391,33.519687 a 0.52916664,0.52916664 0 0 1 -0.259696,0.469878 0.52916664,0.52916664 0 0 1 -0.536868,9.91e-4 0.52916664,0.52916664 0 0 1 -0.261429,-0.468916"
       transform="matrix(0.70710678,-0.70710678,-0.70710678,-0.70710678,0,0)" /><path
       style="fill:none;stroke:#000000;stroke-width:0.264583;stroke-linecap:round;stroke-linejoin:round;stroke-dasharray:none;stroke-opacity:1"
       d="m 12.212367,-59.637845 0.85441,0.854324"
       id="path46763-7-08-4" /><path
       style="fill:none;stroke:#000000;stroke-width:0.264583;stroke-linecap:round;stroke-linejoin:round;stroke-dasharray:none;stroke-opacity:1"
       id="path46761-4-11-6-6"
       d="m 50.805992,33.100852 a 0.52916664,0.52916664 0 0 1 -0.259697,0.469878 0.52916664,0.52916664 0 0 1 -0.536867,9.92e-4 0.52916664,0.52916664 0 0 1 -0.26143,-0.468917"
       transform="matrix(0.70710678,-0.70710678,-0.70710678,-0.70710678,0,0)" /><path
       style="fill:none;stroke:#000000;stroke-width:0.264583;stroke-linecap:round;stroke-linejoin:round;stroke-dasharray:none;stroke-opacity:1"
       d="m 11.760466,-58.593622 1.296786,1.296795"
       id="path46763-7-08-4-2" /><path
       style="fill:none;stroke:#000000;stroke-width:0.264583;stroke-linecap:round;stroke-linejoin:round;stroke-dasharray:none;stroke-opacity:1"
       d="m 15.067955,-61.272306 c 0.335969,0.339834 0.671885,0.679616 1.01596,0.998946 0.344074,0.319329 0.695626,0.617635 0.908567,1.014673 0.212941,0.397038 0.286819,0.891653 0.114327,1.329363 -0.172492,0.43771 -0.590786,0.817103 -0.926769,1.156617 -0.335982,0.339514 -0.587851,0.637365 -0.765656,0.741522 -0.177805,0.104156 -0.280699,0.01366 -0.529564,-0.01313 -0.248865,-0.02679 -0.643341,0.01046 -1.081369,-0.01479 -0.438028,-0.02524 -0.918975,-0.113091 -1.190038,-0.343262 -0.271063,-0.230171 -0.332483,-0.603318 -0.350745,-0.903314 -0.01826,-0.299996 0.0066,-0.527006 0.03145,-0.754041"
       id="path48618" /></g><g
     id="layer1-1"
     transform="translate(4.7624375,33.866647)"><rect
       style="fill:none;fill-opacity:1;stroke:#000000;stroke-width:0.264583;stroke-miterlimit:4;stroke-dasharray:none;stroke-opacity:1"
       id="rect15415"
       width="2.9104166"
       height="6.0854158"
       x="2.7781248"
       y="-6.2177072"
       transform="rotate(90)"
       ry="0.52916664"
       rx="0.52916664" /><path
       style="font-variation-settings:'wght' 700;fill:none;stroke:#000000;stroke-width:0.264584;stroke-linecap:round;stroke-linejoin:round;stroke-dasharray:none"
       d="M 1.8520837,1.9843746 3.1750004,0.6614532 4.4979168,1.9843746"
       id="path25231" /><rect
       style="fill:#000000;fill-opacity:1;stroke:none;stroke-width:0.264582;stroke-linecap:round;stroke-linejoin:round;stroke-miterlimit:4;stroke-dasharray:none"
       id="rect1559-4"
       width="2.6458333"
       height="0.52916664"
       x="1.8520833"
       y="4.7624998"
       ry="0.15875"
       rx="0.15875" /><rect
       style="fill:#000000;fill-opacity:1;stroke:none;stroke-width:0.264583;stroke-linejoin:round;stroke-miterlimit:4;stroke-dasharray:none"
       id="rect2776-7-1"
       width="0.52916664"
       height="0.52916676"
       x="1.3229163"
       y="3.1750023"
       ry="0.15875"
       rx="0.15875" /><rect
       style="fill:#000000;fill-opacity:1;stroke:none;stroke-width:0.264583;stroke-linejoin:round;stroke-miterlimit:4;stroke-dasharray:none"
       id="rect2776-7-5-8"
       width="0.52916664"
       height="0.52916676"
       x="2.116667"
       y="3.1750023"
       ry="0.15875"
       rx="0.15875" /><rect
       style="fill:#000000;fill-opacity:1;stroke:none;stroke-width:0.264583;stroke-linejoin:round;stroke-miterlimit:4;stroke-dasharray:none"
       id="rect2776-7-9-7"
       width="0.52916664"
       height="0.52916676"
       x="2.9104178"
       y="3.1750023"
       ry="0.15875"
       rx="0.15875" /><rect
       style="fill:#000000;fill-opacity:1;stroke:none;stroke-width:0.264583;stroke-linejoin:round;stroke-miterlimit:4;stroke-dasharray:none"
       id="rect2776-7-3-4-9"
       width="0.52916664"
       height="0.52916676"
       x="3.7041686"
       y="3.1750023"
       ry="0.15875"
       rx="0.15875" /><rect
       style="fill:#000000;fill-opacity:1;stroke:none;stroke-width:0.264583;stroke-linejoin:round;stroke-miterlimit:4;stroke-dasharray:none"
       id="rect2776-7-3-7-2"
       width="0.52916664"
       height="0.52916676"
       x="4.4979153"
       y="3.1750023"
       ry="0.15875"
       rx="0.15875" /><rect
       style="fill:#000000;fill-opacity:1;stroke:none;stroke-width:0.264583;stroke-linejoin:round;stroke-miterlimit:4;stroke-dasharray:none"
       id="rect2776-7-1-8"
       width="0.52916664"
       height="0.52916676"
       x="1.3229163"
       y="3.9687531"
       ry="0.15875"
       rx="0.15875" /><rect
       style="fill:#000000;fill-opacity:1;stroke:none;stroke-width:0.264583;stroke-linejoin:round;stroke-miterlimit:4;stroke-dasharray:none"
       id="rect2776-7-5-8-9"
       width="0.52916664"
       height="0.52916676"
       x="2.116667"
       y="3.9687531"
       ry="0.15875"
       rx="0.15875" /><rect
       style="fill:#000000;fill-opacity:1;stroke:none;stroke-width:0.264583;stroke-linejoin:round;stroke-miterlimit:4;stroke-dasharray:none"
       id="rect2776-7-9-7-7"
       width="0.52916664"
       height="0.52916676"
       x="2.9104178"
       y="3.9687531"
       ry="0.15875"
       rx="0.15875" /><rect
       style="fill:#000000;fill-opacity:1;stroke:none;stroke-width:0.264583;stroke-linejoin:round;stroke-miterlimit:4;stroke-dasharray:none"
       id="rect2776-7-3-4-9-3"
       width="0.52916664"
       height="0.52916676"
       x="3.7041686"
       y="3.9687531"
       ry="0.15875"
       rx="0.15875" /><rect
       style="fill:#000000;fill-opacity:1;stroke:none;stroke-width:0.264583;stroke-linejoin:round;stroke-miterlimit:4;stroke-dasharray:none"
       id="rect2776-7-3-7-2-6"
       width="0.52916664"
       height="0.52916676"
       x="4.4979153"
       y="3.9687531"
       ry="0.15875"
       rx="0.15875" /><rect
       style="fill:#000000;fill-opacity:1;stroke:none;stroke-width:0.264583;stroke-linejoin:round;stroke-miterlimit:4;stroke-dasharray:none"
       id="rect2776-7-3-7-2-2"
       width="0.52916664"
       height="0.52916676"
       x="5.2916665"
       y="3.1750023"
       ry="0.15875"
       rx="0.15875" /><rect
       style="fill:#000000;fill-opacity:1;stroke:none;stroke-width:0.264583;stroke-linejoin:round;stroke-miterlimit:4;stroke-dasharray:none"
       id="rect2776-7-3-7-2-6-6"
       width="0.52916664"
       height="0.52916676"
       x="5.2916665"
       y="3.9687531"
       ry="0.15875"
       rx="0.15875" /><rect
       style="fill:#000000;fill-opacity:1;stroke:none;stroke-width:0.264583;stroke-linejoin:round;stroke-miterlimit:4;stroke-dasharray:none"
       id="rect2776-7-3-7-2-1"
       width="0.52916664"
       height="0.52916676"
       x="0.52916545"
       y="3.1750023"
       ry="0.15875"
       rx="0.15875" /><rect
       style="fill:#000000;fill-opacity:1;stroke:none;stroke-width:0.264583;stroke-linejoin:round;stroke-miterlimit:4;stroke-dasharray:none"
       id="rect2776-7-3-7-2-6-0"
       width="0.52916664"
       height="0.52916676"
       x="0.52916545"
       y="3.9687531"
       ry="0.15875"
       rx="0.15875" /></g><g
     id="layer1-3"
     transform="translate(4.7624373,45.772909)"><rect
       style="fill:none;stroke:#000000;stroke-width:0.264583;stroke-linejoin:miter;stroke-dasharray:none;stroke-opacity:1"
       id="rect2167"
       width="5.5562501"
       height="5.5562501"
       x="0.39687482"
       y="0.39687482"
       ry="0.75406253"
       rx="0.75406253" /><g
       aria-label="A"
       id="g11266"
       style="font-size:4.23333px;font-family:poppins;-inkscape-font-specification:poppins;letter-spacing:0px;word-spacing:0px;stroke-width:0.264583px"><path
         d="M 3.81,3.7041666 H 2.54 L 2.2436675,4.5084977 H 1.9304011 L 3.0099002,1.5875002 h 0.334433 L 4.419599,4.5084977 H 4.1063326 Z M 3.7173958,3.4395833 3.175,1.9600332 2.6326041,3.4395833 Z"
         style="-inkscape-font-specification:'poppins Light'"
         id="path11264" /></g></g><g
     id="layer1-4"
     transform="translate(4.7624373,57.943741)"><path
       style="fill:none;stroke:#000000;stroke-width:0.264583;stroke-linecap:round;stroke-linejoin:round;stroke-miterlimit:4;stroke-dasharray:none"
       d="M 1.7197915,2.2489321 H 4.365625"
       id="path22432" /><path
       style="fill:none;stroke:#000000;stroke-width:0.264583;stroke-linecap:round;stroke-linejoin:round;stroke-miterlimit:4;stroke-dasharray:none"
       d="M 1.7197915,3.0426822 H 3.3072916"
       id="path22432-7" /><path
       style="fill:none;stroke:#000000;stroke-width:0.264583;stroke-linecap:round;stroke-linejoin:round;stroke-miterlimit:4;stroke-dasharray:none"
       d="M 1.7197916,3.836458 H 3.8364582"
       id="path22432-7-9" /><path
       style="fill:none;stroke:#000000;stroke-width:0.264583;stroke-linecap:round;stroke-linejoin:round;stroke-miterlimit:4;stroke-dasharray:none"
       d="m 1.7197916,4.6302085 1.8520834,-2e-7"
       id="path22432-7-9-2" /><path
       id="rect853"
       style="fill:none;stroke:#000000;stroke-width:0.264583;stroke-linecap:butt;stroke-linejoin:round;stroke-miterlimit:4;stroke-dasharray:none;stroke-dashoffset:0;stroke-opacity:1"
       d="m 3.8851968,0.66145817 h 0.8773029 c 0.4153075,0 0.6614588,0.25653436 0.6614588,0.69627183 v 3.8991226 c 0,0.4397376 -0.2461513,0.6962727 -0.6614588,0.6962727 H 1.5875004 c -0.4153079,0 -0.6614589,-0.2565351 -0.6614589,-0.6962727 V 1.35773 c 0,-0.43973747 0.246151,-0.69627183 0.6614589,-0.69627183 h 0.8773019" /><rect
       style="fill:none;stroke:#000000;stroke-width:0.264583;stroke-linecap:round;stroke-linejoin:round;stroke-miterlimit:4;stroke-dasharray:none;stroke-dashoffset:0;stroke-opacity:1"
       id="rect1144"
       width="1.3229175"
       height="1.0583336"
       x="2.513541"
       y="0.1322915"
       rx="0.21166666"
       ry="0.21166666" /></g><g
     id="layer1-49"
     transform="translate(4.7625183,69.84999)"><path
       style="display:inline;fill:none;fill-opacity:1;stroke:#000000;stroke-width:0.271199;stroke-linecap:round;stroke-linejoin:round;stroke-dasharray:none;stroke-opacity:1"
       d="M 1.7216687,1.72168 4.628281,4.6282708"
       id="path16223-6" /><path
       id="path3915"
       style="fill:none;stroke:#000000;stroke-width:0.271199;stroke-linecap:round;stroke-linejoin:round;stroke-dasharray:none"
       d="M 3.2656578,1.5682219 3.8552649,0.97861956 c 0.4199686,-0.41996572 1.0961634,-0.41996572 1.5161318,-2e-7 0.4199689,0.41996564 0.4199689,1.09615534 0,1.51612104 L 4.7817899,3.084343" /><path
       id="path3997"
       style="fill:none;stroke:#000000;stroke-width:0.271199;stroke-linecap:round;stroke-linejoin:round;stroke-dasharray:none"
       d="m 3.0843419,4.7817787 -0.589607,0.5896024 c -0.4199686,0.4199657 -1.0961633,0.4199657 -1.51613207,1e-7 -0.41996876,-0.4199656 -0.41996876,-1.0961552 0,-1.516121 L 1.5682096,3.2656575" /></g><path
     style="fill:none;stroke:#dadad7;stroke-width:0.264583;stroke-dasharray:none;stroke-opacity:1"
     d="m 0.1322915,0 10e-9,80.962497"
     id="path118067" /><path
     style="fill:none;fill-opacity:1;stroke:#dadad7;stroke-width:0.264583;stroke-linecap:butt;stroke-linejoin:round;stroke-dasharray:none;stroke-opacity:1"
     d="M 3.4395822,17.330203 H 12.435415"
     id="path5406" /></svg>
