<?xml version="1.0" encoding="UTF-8" standalone="no"?>
<!-- Created with Inkscape (http://www.inkscape.org/) -->

<svg
   version="1.1"
   id="svg1"
   width="700"
   height="541"
   viewBox="0 0 699.99997 541"
   xmlns="http://www.w3.org/2000/svg"
   xmlns:svg="http://www.w3.org/2000/svg">
  <defs
     id="defs1" />
  <path
     id="path110"
     clip-path="none"
     style="fill:#ffffff;fill-opacity:1;fill-rule:nonzero;stroke:none;stroke-width:1.33333"
     d="M 12.000001,1.625e-7 C 5.3746679,1.625e-7 1.383333e-6,5.3746707 1.383333e-6,12 v 517 c 0,6.62531 5.374666516667,12 11.999999616667,12 H 688 c 6.62533,0 12,-5.37469 12,-12 V 12 C 700,5.3746707 694.62533,1.625e-7 688,1.625e-7 Z" />
  <path
     id="path54"
     style="fill:#d9d9d6;fill-opacity:1;stroke-width:1.33333"
     d="M 12,0 C 5.37467,0 0,5.37467 0,12 V 47 H 700 V 12 C 700,5.37467 694.62533,0 688,0 Z" />
  <path
     d="M 29.999987,410.99999 H 669.99997 v 1 H 29.999987 Z"
     style="fill:#d9d9d6;fill-opacity:1;fill-rule:nonzero;stroke:none;stroke-width:1.33333"
     clip-path="none"
     id="path112" />
  <path
     style="font-weight:600;font-size:12px;font-family:Poppins;stroke-width:1.33333"
     d="m 277.56867,26.872 h -4.448 l -0.736,2.128 h -2.352 l 4.016,-11.184 h 2.608 l 4.016,11.184 h -2.368 z m -0.608,-1.792 -1.616,-4.672 -1.616,4.672 z m 4.63999,-0.544 q 0,-1.344 0.528,-2.384 0.544,-1.04 1.472,-1.6 0.928,-0.56 2.064,-0.56 0.864,0 1.648,0.384 0.784,0.368 1.248,0.992 V 17.16 h 2.272 V 29 h -2.272 v -1.312 q -0.416,0.656 -1.168,1.056 -0.752,0.4 -1.744,0.4 -1.12,0 -2.048,-0.576 -0.928,-0.576 -1.472,-1.616 -0.528,-1.056 -0.528,-2.416 z m 6.976,0.032 q 0,-0.816 -0.32,-1.392 -0.32,-0.592 -0.864,-0.896 -0.544,-0.32 -1.168,-0.32 -0.624,0 -1.152,0.304 -0.528,0.304 -0.864,0.896 -0.32,0.576 -0.32,1.376 0,0.8 0.32,1.408 0.336,0.592 0.864,0.912 0.544,0.32 1.152,0.32 0.624,0 1.168,-0.304 0.544,-0.32 0.864,-0.896 0.32,-0.592 0.32,-1.408 z m 3.87199,-0.032 q 0,-1.344 0.528,-2.384 0.544,-1.04 1.472,-1.6 0.928,-0.56 2.064,-0.56 0.864,0 1.648,0.384 0.784,0.368 1.248,0.992 V 17.16 h 2.272 V 29 h -2.272 v -1.312 q -0.416,0.656 -1.168,1.056 -0.752,0.4 -1.744,0.4 -1.12,0 -2.048,-0.576 -0.928,-0.576 -1.472,-1.616 -0.528,-1.056 -0.528,-2.416 z m 6.976,0.032 q 0,-0.816 -0.32,-1.392 -0.32,-0.592 -0.864,-0.896 -0.544,-0.32 -1.168,-0.32 -0.624,0 -1.152,0.304 -0.528,0.304 -0.864,0.896 -0.32,0.576 -0.32,1.376 0,0.8 0.32,1.408 0.336,0.592 0.864,0.912 0.544,0.32 1.152,0.32 0.624,0 1.168,-0.304 0.544,-0.32 0.864,-0.896 0.32,-0.592 0.32,-1.408 z m 13.16801,-4.56 q 1.584,0 2.56,1.008 0.976,0.992 0.976,2.784 V 29 h -2.24 v -4.896 q 0,-1.056 -0.528,-1.616 -0.528,-0.576 -1.44,-0.576 -0.928,0 -1.472,0.576 -0.528,0.56 -0.528,1.616 V 29 h -2.24 v -8.864 h 2.24 v 1.104 q 0.448,-0.576 1.136,-0.896 0.704,-0.336 1.536,-0.336 z m 13.90399,4.368 q 0,0.48 -0.064,0.864 h -6.48 q 0.08,0.96 0.672,1.504 0.592,0.544 1.456,0.544 1.248,0 1.776,-1.072 h 2.416 q -0.384,1.28 -1.472,2.112 -1.088,0.816 -2.672,0.816 -1.28,0 -2.304,-0.56 -1.008,-0.576 -1.584,-1.616 -0.56,-1.04 -0.56,-2.4 0,-1.376 0.56,-2.416 0.56,-1.04 1.568,-1.6 1.008,-0.56 2.32,-0.56 1.264,0 2.256,0.544 1.008,0.544 1.552,1.552 0.56,0.992 0.56,2.288 z m -2.32,-0.64 q -0.016,-0.864 -0.624,-1.376 -0.608,-0.528 -1.488,-0.528 -0.832,0 -1.408,0.512 -0.56,0.496 -0.688,1.392 z m 16.24001,-3.6 -2.592,8.864 h -2.416 l -1.616,-6.192 -1.616,6.192 h -2.432 l -2.608,-8.864 h 2.272 l 1.568,6.752 1.696,-6.752 h 2.368 l 1.664,6.736 1.568,-6.736 z m 8.41601,9.008 q -1.088,0 -1.952,-0.384 -0.864,-0.4 -1.376,-1.072 -0.496,-0.672 -0.544,-1.488 h 2.256 q 0.064,0.512 0.496,0.848 0.448,0.336 1.104,0.336 0.64,0 0.992,-0.256 0.368,-0.256 0.368,-0.656 0,-0.432 -0.448,-0.64 -0.432,-0.224 -1.392,-0.48 -0.992,-0.24 -1.632,-0.496 -0.624,-0.256 -1.088,-0.784 -0.448,-0.528 -0.448,-1.424 0,-0.736 0.416,-1.344 0.432,-0.608 1.216,-0.96 0.8,-0.352 1.872,-0.352 1.584,0 2.528,0.8 0.944,0.784 1.04,2.128 h -2.144 q -0.048,-0.528 -0.448,-0.832 -0.384,-0.32 -1.04,-0.32 -0.608,0 -0.944,0.224 -0.32,0.224 -0.32,0.624 0,0.448 0.448,0.688 0.448,0.224 1.392,0.464 0.96,0.24 1.584,0.496 0.624,0.256 1.072,0.8 0.464,0.528 0.48,1.408 0,0.768 -0.432,1.376 -0.416,0.608 -1.216,0.96 -0.784,0.336 -1.84,0.336 z m 13.696,-9.008 V 29 h -2.256 v -1.12 q -0.432,0.576 -1.136,0.912 -0.688,0.32 -1.504,0.32 -1.04,0 -1.84,-0.432 -0.8,-0.448 -1.264,-1.296 -0.448,-0.864 -0.448,-2.048 v -5.2 h 2.24 v 4.88 q 0,1.056 0.528,1.632 0.528,0.56 1.44,0.56 0.928,0 1.456,-0.56 0.528,-0.576 0.528,-1.632 v -4.88 z m 4.44799,1.296 q 0.432,-0.64 1.184,-1.04 0.768,-0.4 1.744,-0.4 1.136,0 2.048,0.56 0.928,0.56 1.456,1.6 0.544,1.024 0.544,2.384 0,1.36 -0.544,2.416 -0.528,1.04 -1.456,1.616 -0.912,0.576 -2.048,0.576 -0.992,0 -1.744,-0.384 -0.736,-0.4 -1.184,-1.024 V 29 h -2.24 V 17.16 h 2.24 z m 4.688,3.104 q 0,-0.8 -0.336,-1.376 -0.32,-0.592 -0.864,-0.896 -0.528,-0.304 -1.152,-0.304 -0.608,0 -1.152,0.32 -0.528,0.304 -0.864,0.896 -0.32,0.592 -0.32,1.392 0,0.8 0.32,1.392 0.336,0.592 0.864,0.912 0.544,0.304 1.152,0.304 0.624,0 1.152,-0.32 0.544,-0.32 0.864,-0.912 0.336,-0.592 0.336,-1.408 z m 3.34399,0.032 q 0,-1.376 0.56,-2.4 0.56,-1.04 1.552,-1.6 0.992,-0.576 2.272,-0.576 1.648,0 2.72,0.832 1.088,0.816 1.456,2.304 h -2.416 q -0.192,-0.576 -0.656,-0.896 -0.448,-0.336 -1.12,-0.336 -0.96,0 -1.52,0.704 -0.56,0.688 -0.56,1.968 0,1.264 0.56,1.968 0.56,0.688 1.52,0.688 1.36,0 1.776,-1.216 h 2.416 q -0.368,1.44 -1.456,2.288 -1.088,0.848 -2.72,0.848 -1.28,0 -2.272,-0.56 -0.992,-0.576 -1.552,-1.6 -0.56,-1.04 -0.56,-2.416 z M 387.45664,17.16 V 29 h -2.24 V 17.16 Z m 10.576,2.976 V 29 h -2.256 v -1.12 q -0.432,0.576 -1.136,0.912 -0.688,0.32 -1.504,0.32 -1.04,0 -1.84,-0.432 -0.8,-0.448 -1.264,-1.296 -0.448,-0.864 -0.448,-2.048 v -5.2 h 2.24 v 4.88 q 0,1.056 0.528,1.632 0.528,0.56 1.44,0.56 0.928,0 1.456,-0.56 0.528,-0.576 0.528,-1.632 v -4.88 z m 5.59999,9.008 q -1.088,0 -1.952,-0.384 -0.864,-0.4 -1.376,-1.072 -0.496,-0.672 -0.544,-1.488 h 2.256 q 0.064,0.512 0.496,0.848 0.448,0.336 1.104,0.336 0.64,0 0.992,-0.256 0.368,-0.256 0.368,-0.656 0,-0.432 -0.448,-0.64 -0.432,-0.224 -1.392,-0.48 -0.992,-0.24 -1.632,-0.496 -0.624,-0.256 -1.088,-0.784 -0.448,-0.528 -0.448,-1.424 0,-0.736 0.416,-1.344 0.432,-0.608 1.216,-0.96 0.8,-0.352 1.872,-0.352 1.584,0 2.528,0.8 0.944,0.784 1.04,2.128 h -2.144 q -0.048,-0.528 -0.448,-0.832 -0.384,-0.32 -1.04,-0.32 -0.608,0 -0.944,0.224 -0.32,0.224 -0.32,0.624 0,0.448 0.448,0.688 0.448,0.224 1.392,0.464 0.96,0.24 1.584,0.496 0.624,0.256 1.072,0.8 0.464,0.528 0.48,1.408 0,0.768 -0.432,1.376 -0.416,0.608 -1.216,0.96 -0.784,0.336 -1.84,0.336 z m 7.936,-7.168 v 4.288 q 0,0.448 0.208,0.656 0.224,0.192 0.736,0.192 h 1.04 V 29 h -1.408 q -2.832,0 -2.832,-2.752 v -4.272 h -1.056 v -1.84 h 1.056 v -2.192 h 2.256 v 2.192 h 1.984 v 1.84 z m 11.84001,2.4 q 0,0.48 -0.064,0.864 h -6.48 q 0.08,0.96 0.672,1.504 0.592,0.544 1.456,0.544 1.248,0 1.776,-1.072 h 2.416 q -0.384,1.28 -1.472,2.112 -1.088,0.816 -2.672,0.816 -1.28,0 -2.304,-0.56 -1.008,-0.576 -1.584,-1.616 -0.56,-1.04 -0.56,-2.4 0,-1.376 0.56,-2.416 0.56,-1.04 1.568,-1.6 1.008,-0.56 2.32,-0.56 1.264,0 2.256,0.544 1.008,0.544 1.552,1.552 0.56,0.992 0.56,2.288 z m -2.32,-0.64 q -0.016,-0.864 -0.624,-1.376 -0.608,-0.528 -1.488,-0.528 -0.832,0 -1.408,0.512 -0.56,0.496 -0.688,1.392 z m 6.192,-2.224 q 0.432,-0.704 1.12,-1.104 0.704,-0.4 1.6,-0.4 v 2.352 h -0.592 q -1.056,0 -1.6,0.496 -0.528,0.496 -0.528,1.728 V 29 h -2.24 v -8.864 h 2.24 z"
     id="text112"
     clip-path="none"
     aria-label="Add new subcluster" />
  <path
     d="m 672.66664,20.166666 7,7"
     style="fill:#000000;fill-opacity:1;fill-rule:nonzero;stroke:#000000;stroke-width:2.2;stroke-linecap:round;stroke-linejoin:miter;stroke-miterlimit:4;stroke-dasharray:none;stroke-opacity:1"
     clip-path="none"
     id="path113" />
  <path
     d="m 679.66664,20.166666 -7,7"
     style="fill:#000000;fill-opacity:1;fill-rule:nonzero;stroke:#000000;stroke-width:2.2;stroke-linecap:round;stroke-linejoin:miter;stroke-miterlimit:4;stroke-dasharray:none;stroke-opacity:1"
     clip-path="none"
     id="path114" />
  <path
     style="font-size:11.25px;font-family:Poppins;stroke-width:1.33333"
     d="m 171.35333,110.105 q -1.035,0 -1.86,-0.36 -0.81,-0.375 -1.275,-1.02 -0.465,-0.66 -0.48,-1.515 h 1.455 q 0.075,0.735 0.6,1.245 0.54,0.495 1.56,0.495 0.975,0 1.53,-0.48 0.57,-0.495 0.57,-1.26 0,-0.6 -0.33,-0.975 -0.33,-0.375 -0.825,-0.57 -0.495,-0.195 -1.335,-0.42 -1.035,-0.27 -1.665,-0.54 -0.615,-0.27 -1.065,-0.84 -0.435,-0.585 -0.435,-1.56 0,-0.855 0.435,-1.515 0.435,-0.66 1.215,-1.02 0.795,-0.36 1.815,-0.36 1.47,0 2.4,0.735 0.945,0.735 1.065,1.95 h -1.5 q -0.075,-0.6 -0.63,-1.05 -0.555,-0.465 -1.47,-0.465 -0.855,0 -1.395,0.45 -0.54,0.435 -0.54,1.23 0,0.57 0.315,0.93 0.33,0.36 0.795,0.555 0.48,0.18 1.335,0.42 1.035,0.285 1.665,0.57 0.63,0.27 1.08,0.855 0.45,0.57 0.45,1.56 0,0.765 -0.405,1.44 -0.405,0.675 -1.2,1.095 -0.795,0.42 -1.875,0.42 z m 12.78,-8.325 V 110 h -1.365 v -1.215 q -0.39,0.63 -1.095,0.99 -0.69,0.345 -1.53,0.345 -0.96,0 -1.725,-0.39 -0.765,-0.405 -1.215,-1.2 -0.435,-0.795 -0.435,-1.935 v -4.815 h 1.35 v 4.635 q 0,1.215 0.615,1.875 0.615,0.645 1.68,0.645 1.095,0 1.725,-0.675 0.63,-0.675 0.63,-1.965 v -4.515 z m 3.67499,1.53 q 0.42,-0.735 1.23,-1.2 0.81,-0.465 1.845,-0.465 1.11,0 1.995,0.525 0.885,0.525 1.395,1.485 0.51,0.945 0.51,2.205 0,1.245 -0.51,2.22 -0.51,0.975 -1.41,1.515 -0.885,0.54 -1.98,0.54 -1.065,0 -1.875,-0.465 -0.795,-0.465 -1.2,-1.185 V 110 h -1.365 V 98.9 h 1.365 z m 5.58,2.55 q 0,-0.93 -0.375,-1.62 -0.375,-0.69 -1.02,-1.05 -0.63,-0.36 -1.395,-0.36 -0.75,0 -1.395,0.375 -0.63,0.36 -1.02,1.065 -0.375,0.69 -0.375,1.605 0,0.93 0.375,1.635 0.39,0.69 1.02,1.065 0.645,0.36 1.395,0.36 0.765,0 1.395,-0.36 0.645,-0.375 1.02,-1.065 0.375,-0.705 0.375,-1.65 z m 2.68501,0.015 q 0,-1.275 0.51,-2.22 0.51,-0.96 1.41,-1.485 0.915,-0.525 2.085,-0.525 1.515,0 2.49,0.735 0.99,0.735 1.305,2.04 h -1.47 q -0.21,-0.75 -0.825,-1.185 -0.6,-0.435 -1.5,-0.435 -1.17,0 -1.89,0.81 -0.72,0.795 -0.72,2.265 0,1.485 0.72,2.295 0.72,0.81 1.89,0.81 0.9,0 1.5,-0.42 0.6,-0.42 0.825,-1.2 h 1.47 q -0.33,1.26 -1.32,2.025 -0.99,0.75 -2.475,0.75 -1.17,0 -2.085,-0.525 -0.9,-0.525 -1.41,-1.485 -0.51,-0.96 -0.51,-2.25 z m 10.98,-6.975 V 110 h -1.365 V 98.9 Z m 9.61501,2.88 V 110 h -1.365 v -1.215 q -0.39,0.63 -1.095,0.99 -0.69,0.345 -1.53,0.345 -0.96,0 -1.725,-0.39 -0.765,-0.405 -1.215,-1.2 -0.435,-0.795 -0.435,-1.935 v -4.815 h 1.35 v 4.635 q 0,1.215 0.615,1.875 0.615,0.645 1.68,0.645 1.095,0 1.725,-0.675 0.63,-0.675 0.63,-1.965 v -4.515 z m 5.21999,8.355 q -0.945,0 -1.695,-0.315 -0.75,-0.33 -1.185,-0.9 -0.435,-0.585 -0.48,-1.335 h 1.41 q 0.06,0.615 0.57,1.005 0.525,0.39 1.365,0.39 0.78,0 1.23,-0.345 0.45,-0.345 0.45,-0.87 0,-0.54 -0.48,-0.795 -0.48,-0.27 -1.485,-0.525 -0.915,-0.24 -1.5,-0.48 -0.57,-0.255 -0.99,-0.735 -0.405,-0.495 -0.405,-1.29 0,-0.63 0.375,-1.155 0.375,-0.525 1.065,-0.825 0.69,-0.315 1.575,-0.315 1.365,0 2.205,0.69 0.84,0.69 0.9,1.89 h -1.365 q -0.045,-0.645 -0.525,-1.035 -0.465,-0.39 -1.26,-0.39 -0.735,0 -1.17,0.315 -0.435,0.315 -0.435,0.825 0,0.405 0.255,0.675 0.27,0.255 0.66,0.42 0.405,0.15 1.11,0.345 0.885,0.24 1.44,0.48 0.555,0.225 0.945,0.69 0.405,0.465 0.42,1.215 0,0.675 -0.375,1.215 -0.375,0.54 -1.065,0.855 -0.675,0.3 -1.56,0.3 z m 6.58499,-7.23 v 4.845 q 0,0.6 0.255,0.855 0.255,0.24 0.885,0.24 h 1.005 V 110 h -1.23 q -1.14,0 -1.71,-0.525 -0.57,-0.525 -0.57,-1.725 v -4.845 h -1.065 v -1.125 h 1.065 v -2.07 h 1.365 v 2.07 h 2.145 v 1.125 z m 11.295,2.67 q 0,0.39 -0.045,0.825 h -6.57 q 0.075,1.215 0.825,1.905 0.765,0.675 1.845,0.675 0.885,0 1.47,-0.405 0.6,-0.42 0.84,-1.11 h 1.47 q -0.33,1.185 -1.32,1.935 -0.99,0.735 -2.46,0.735 -1.17,0 -2.1,-0.525 -0.915,-0.525 -1.44,-1.485 -0.525,-0.975 -0.525,-2.25 0,-1.275 0.51,-2.235 0.51,-0.96 1.425,-1.47 0.93,-0.525 2.13,-0.525 1.17,0 2.07,0.51 0.9,0.51 1.38,1.41 0.495,0.885 0.495,2.01 z m -1.41,-0.285 q 0,-0.78 -0.345,-1.335 -0.345,-0.57 -0.945,-0.855 -0.585,-0.3 -1.305,-0.3 -1.035,0 -1.77,0.66 -0.72,0.66 -0.825,1.83 z m 4.57502,-2.175 q 0.36,-0.705 1.02,-1.095 0.675,-0.39 1.635,-0.39 v 1.41 h -0.36 q -2.295,0 -2.295,2.49 V 110 h -1.365 v -8.22 h 1.365 z"
     id="text114"
     clip-path="none"
     aria-label="Subcluster" />
  <path
     d="M 271.99998,84.999998 H 603.99997 V 124 H 271.99998 Z"
     style="fill:#ffffff;fill-opacity:1;fill-rule:nonzero;stroke:none;stroke-width:1.33333"
     clip-path="none"
     id="path115" />
  <path
     d="m 277.99998,84.999998 h 319.99999 c 3.312,0 6,2.688 6,6 V 118 c 0,3.312 -2.688,6 -6,6 H 277.99998 c -3.312,0 -6,-2.688 -6,-6 V 90.999998 c 0,-3.312 2.688,-6 6,-6 z m 319.99999,1 H 277.99998 c -2.76,0 -5,2.24 -5,5 V 118 c 0,2.76 2.24,5 5,5 h 319.99999 c 2.76,0 5,-2.24 5,-5 V 90.999998 c 0,-2.76 -2.24,-5 -5,-5 z"
     style="fill:#d9d9d6;fill-opacity:1;fill-rule:nonzero;stroke:none;stroke-width:1.33333"
     clip-path="none"
     id="path116" />
  <path
     style="font-size:11.25px;font-family:Poppins;stroke-width:1.33333"
     d="m 297.375,110 h -1.365 l -5.49,-8.325 V 110 h -1.365 V 99.53 h 1.365 l 5.49,8.31 v -8.31 h 1.365 z m 9.82499,-4.425 q 0,0.39 -0.045,0.825 h -6.57 q 0.075,1.215 0.825,1.905 0.765,0.675 1.845,0.675 0.885,0 1.47,-0.405 0.6,-0.42 0.84,-1.11 h 1.47 q -0.33,1.185 -1.32,1.935 -0.99,0.735 -2.46,0.735 -1.17,0 -2.1,-0.525 -0.915,-0.525 -1.44,-1.485 -0.525,-0.975 -0.525,-2.25 0,-1.275 0.51,-2.235 0.51,-0.96 1.425,-1.47 0.93,-0.525 2.13,-0.525 1.17,0 2.07,0.51 0.9,0.51 1.38,1.41 0.495,0.885 0.495,2.01 z m -1.41,-0.285 q 0,-0.78 -0.345,-1.335 -0.345,-0.57 -0.945,-0.855 -0.585,-0.3 -1.305,-0.3 -1.035,0 -1.77,0.66 -0.72,0.66 -0.825,1.83 z M 319.95,101.78 317.385,110 h -1.41 l -1.98,-6.525 -1.98,6.525 h -1.41 l -2.58,-8.22 h 1.395 l 1.89,6.9 2.04,-6.9 h 1.395 l 1.995,6.915 1.86,-6.915 z m 4.66499,8.325 q -1.035,0 -1.86,-0.36 -0.81,-0.375 -1.275,-1.02 -0.465,-0.66 -0.48,-1.515 h 1.455 q 0.075,0.735 0.6,1.245 0.54,0.495 1.56,0.495 0.975,0 1.53,-0.48 0.57,-0.495 0.57,-1.26 0,-0.6 -0.33,-0.975 -0.33,-0.375 -0.825,-0.57 -0.495,-0.195 -1.335,-0.42 -1.035,-0.27 -1.665,-0.54 -0.615,-0.27 -1.065,-0.84 -0.435,-0.585 -0.435,-1.56 0,-0.855 0.435,-1.515 0.435,-0.66 1.215,-1.02 0.795,-0.36 1.815,-0.36 1.47,0 2.4,0.735 0.945,0.735 1.065,1.95 h -1.5 q -0.075,-0.6 -0.63,-1.05 -0.555,-0.465 -1.47,-0.465 -0.855,0 -1.395,0.45 -0.54,0.435 -0.54,1.23 0,0.57 0.315,0.93 0.33,0.36 0.795,0.555 0.48,0.18 1.335,0.42 1.035,0.285 1.665,0.57 0.63,0.27 1.08,0.855 0.45,0.57 0.45,1.56 0,0.765 -0.405,1.44 -0.405,0.675 -1.2,1.095 -0.795,0.42 -1.875,0.42 z m 12.78,-8.325 V 110 h -1.365 v -1.215 q -0.39,0.63 -1.095,0.99 -0.69,0.345 -1.53,0.345 -0.96,0 -1.725,-0.39 -0.765,-0.405 -1.215,-1.2 -0.435,-0.795 -0.435,-1.935 v -4.815 h 1.35 v 4.635 q 0,1.215 0.615,1.875 0.615,0.645 1.68,0.645 1.095,0 1.725,-0.675 0.63,-0.675 0.63,-1.965 v -4.515 z m 3.67499,1.53 q 0.42,-0.735 1.23,-1.2 0.81,-0.465 1.845,-0.465 1.11,0 1.995,0.525 0.885,0.525 1.395,1.485 0.51,0.945 0.51,2.205 0,1.245 -0.51,2.22 -0.51,0.975 -1.41,1.515 -0.885,0.54 -1.98,0.54 -1.065,0 -1.875,-0.465 -0.795,-0.465 -1.2,-1.185 V 110 h -1.365 V 98.9 h 1.365 z m 5.58,2.55 q 0,-0.93 -0.375,-1.62 -0.375,-0.69 -1.02,-1.05 -0.63,-0.36 -1.395,-0.36 -0.75,0 -1.395,0.375 -0.63,0.36 -1.02,1.065 -0.375,0.69 -0.375,1.605 0,0.93 0.375,1.635 0.39,0.69 1.02,1.065 0.645,0.36 1.395,0.36 0.765,0 1.395,-0.36 0.645,-0.375 1.02,-1.065 0.375,-0.705 0.375,-1.65 z m 2.68501,0.015 q 0,-1.275 0.51,-2.22 0.51,-0.96 1.41,-1.485 0.915,-0.525 2.085,-0.525 1.515,0 2.49,0.735 0.99,0.735 1.305,2.04 h -1.47 q -0.21,-0.75 -0.825,-1.185 -0.6,-0.435 -1.5,-0.435 -1.17,0 -1.89,0.81 -0.72,0.795 -0.72,2.265 0,1.485 0.72,2.295 0.72,0.81 1.89,0.81 0.9,0 1.5,-0.42 0.6,-0.42 0.825,-1.2 h 1.47 q -0.33,1.26 -1.32,2.025 -0.99,0.75 -2.475,0.75 -1.17,0 -2.085,-0.525 -0.9,-0.525 -1.41,-1.485 -0.51,-0.96 -0.51,-2.25 z M 360.315,98.9 V 110 H 358.95 V 98.9 Z m 9.615,2.88 V 110 h -1.365 v -1.215 q -0.39,0.63 -1.095,0.99 -0.69,0.345 -1.53,0.345 -0.96,0 -1.725,-0.39 -0.765,-0.405 -1.215,-1.2 -0.435,-0.795 -0.435,-1.935 v -4.815 h 1.35 v 4.635 q 0,1.215 0.615,1.875 0.615,0.645 1.68,0.645 1.095,0 1.725,-0.675 0.63,-0.675 0.63,-1.965 v -4.515 z m 5.21999,8.355 q -0.945,0 -1.695,-0.315 -0.75,-0.33 -1.185,-0.9 -0.435,-0.585 -0.48,-1.335 h 1.41 q 0.06,0.615 0.57,1.005 0.525,0.39 1.365,0.39 0.78,0 1.23,-0.345 0.45,-0.345 0.45,-0.87 0,-0.54 -0.48,-0.795 -0.48,-0.27 -1.485,-0.525 -0.915,-0.24 -1.5,-0.48 -0.57,-0.255 -0.99,-0.735 -0.405,-0.495 -0.405,-1.29 0,-0.63 0.375,-1.155 0.375,-0.525 1.065,-0.825 0.69,-0.315 1.575,-0.315 1.365,0 2.205,0.69 0.84,0.69 0.9,1.89 h -1.365 q -0.045,-0.645 -0.525,-1.035 -0.465,-0.39 -1.26,-0.39 -0.735,0 -1.17,0.315 -0.435,0.315 -0.435,0.825 0,0.405 0.255,0.675 0.27,0.255 0.66,0.42 0.405,0.15 1.11,0.345 0.885,0.24 1.44,0.48 0.555,0.225 0.945,0.69 0.405,0.465 0.42,1.215 0,0.675 -0.375,1.215 -0.375,0.54 -1.065,0.855 -0.675,0.3 -1.56,0.3 z m 6.585,-7.23 v 4.845 q 0,0.6 0.255,0.855 0.255,0.24 0.885,0.24 h 1.005 V 110 h -1.23 q -1.14,0 -1.71,-0.525 -0.57,-0.525 -0.57,-1.725 v -4.845 h -1.065 v -1.125 h 1.065 v -2.07 h 1.365 v 2.07 h 2.145 v 1.125 z m 11.295,2.67 q 0,0.39 -0.045,0.825 h -6.57 q 0.075,1.215 0.825,1.905 0.765,0.675 1.845,0.675 0.885,0 1.47,-0.405 0.6,-0.42 0.84,-1.11 h 1.47 q -0.33,1.185 -1.32,1.935 -0.99,0.735 -2.46,0.735 -1.17,0 -2.1,-0.525 -0.915,-0.525 -1.44,-1.485 -0.525,-0.975 -0.525,-2.25 0,-1.275 0.51,-2.235 0.51,-0.96 1.425,-1.47 0.93,-0.525 2.13,-0.525 1.17,0 2.07,0.51 0.9,0.51 1.38,1.41 0.495,0.885 0.495,2.01 z m -1.41,-0.285 q 0,-0.78 -0.345,-1.335 -0.345,-0.57 -0.945,-0.855 -0.585,-0.3 -1.305,-0.3 -1.035,0 -1.77,0.66 -0.72,0.66 -0.825,1.83 z m 4.575,-2.175 q 0.36,-0.705 1.02,-1.095 0.675,-0.39 1.635,-0.39 v 1.41 h -0.36 q -2.295,0 -2.295,2.49 V 110 h -1.365 v -8.22 h 1.365 z"
     id="path252"
     clip-path="none" />
  <path
     style="font-size:11.25px;font-family:Poppins;stroke-width:1.33333"
     d="m 200.885,160.67501 h -4.56 l -0.84,2.325 h -1.44 l 3.78,-10.395 h 1.575 l 3.765,10.395 h -1.44 z m -0.39,-1.11 -1.89,-5.28 -1.89,5.28 z m 7.71,-4.92 q 1.065,0 1.86,0.465 0.81,0.465 1.2,1.17 v -1.5 h 1.38 v 8.4 q 0,1.125 -0.48,1.995 -0.48,0.885 -1.38,1.38 -0.885,0.495 -2.07,0.495 -1.62,0 -2.7,-0.765 -1.08,-0.765 -1.275,-2.085 h 1.35 q 0.225,0.75 0.93,1.2 0.705,0.465 1.695,0.465 1.125,0 1.83,-0.705 0.72,-0.705 0.72,-1.98 v -1.725 q -0.405,0.72 -1.2,1.2 -0.795,0.48 -1.86,0.48 -1.095,0 -1.995,-0.54 -0.885,-0.54 -1.395,-1.515 -0.51,-0.975 -0.51,-2.22 0,-1.26 0.51,-2.205 0.51,-0.96 1.395,-1.485 0.9,-0.525 1.995,-0.525 z m 3.06,4.23 q 0,-0.93 -0.375,-1.62 -0.375,-0.69 -1.02,-1.05 -0.63,-0.375 -1.395,-0.375 -0.765,0 -1.395,0.36 -0.63,0.36 -1.005,1.05 -0.375,0.69 -0.375,1.62 0,0.945 0.375,1.65 0.375,0.69 1.005,1.065 0.63,0.36 1.395,0.36 0.765,0 1.395,-0.36 0.645,-0.375 1.02,-1.065 0.375,-0.705 0.375,-1.635 z m 11.19,-0.3 q 0,0.39 -0.045,0.825 h -6.57 q 0.075,1.215 0.825,1.905 0.765,0.675 1.845,0.675 0.885,0 1.47,-0.405 0.6,-0.42 0.84,-1.11 h 1.47 q -0.33,1.185 -1.32,1.935 -0.99,0.735 -2.46,0.735 -1.17,0 -2.1,-0.525 -0.915,-0.525 -1.44,-1.485 -0.525,-0.975 -0.525,-2.25 0,-1.275 0.51,-2.235 0.51,-0.96 1.425,-1.47 0.93,-0.525 2.13,-0.525 1.17,0 2.07,0.51 0.9,0.51 1.38,1.41 0.495,0.885 0.495,2.01 z m -1.41,-0.285 q 0,-0.78 -0.345,-1.335 -0.345,-0.57 -0.945,-0.855 -0.585,-0.3 -1.305,-0.3 -1.035,0 -1.77,0.66 -0.72,0.66 -0.825,1.83 z m 7.21502,-3.66 q 1.5,0 2.43,0.915 0.93,0.9 0.93,2.61 v 4.845 h -1.35 v -4.65 q 0,-1.23 -0.615,-1.875 -0.615,-0.66 -1.68,-0.66 -1.08,0 -1.725,0.675 -0.63,0.675 -0.63,1.965 v 4.545 h -1.365 v -8.22 h 1.365 v 1.17 q 0.405,-0.63 1.095,-0.975 0.705,-0.345 1.545,-0.345 z m 7.25999,1.275 v 4.845 q 0,0.6 0.255,0.855 0.255,0.24 0.885,0.24 h 1.005 v 1.155 h -1.23 q -1.14,0 -1.71,-0.525 -0.57,-0.525 -0.57,-1.725 v -4.845 h -1.065 v -1.125 h 1.065 v -2.07 h 1.365 v 2.07 h 2.145 v 1.125 z m 6.705,7.23 q -0.945,0 -1.695,-0.315 -0.75,-0.33 -1.185,-0.9 -0.435,-0.585 -0.48,-1.335 h 1.41 q 0.06,0.615 0.57,1.005 0.525,0.39 1.365,0.39 0.78,0 1.23,-0.345 0.45,-0.345 0.45,-0.87 0,-0.54 -0.48,-0.795 -0.48,-0.27 -1.485,-0.525 -0.915,-0.24 -1.5,-0.48 -0.57,-0.255 -0.99,-0.735 -0.405,-0.495 -0.405,-1.29 0,-0.63 0.375,-1.155 0.375,-0.525 1.065,-0.825 0.69,-0.315 1.575,-0.315 1.365,0 2.205,0.69 0.84,0.69 0.9,1.89 h -1.365 q -0.045,-0.645 -0.525,-1.035 -0.465,-0.39 -1.26,-0.39 -0.735,0 -1.17,0.315 -0.435,0.315 -0.435,0.825 0,0.405 0.255,0.675 0.27,0.255 0.66,0.42 0.405,0.15 1.11,0.345 0.885,0.24 1.44,0.48 0.555,0.225 0.945,0.69 0.405,0.465 0.42,1.215 0,0.675 -0.375,1.215 -0.375,0.54 -1.065,0.855 -0.675,0.3 -1.56,0.3 z"
     id="path253"
     clip-path="none" />
  <path
     d="m 271.99998,138 h 331.99999 v 39 H 271.99998 Z"
     style="fill:#ffffff;fill-opacity:1;fill-rule:nonzero;stroke:none;stroke-width:1.33333"
     clip-path="none"
     id="path117" />
  <path
     d="m 277.99998,138 h 319.99999 c 3.312,0 6,2.688 6,6 v 27 c 0,3.312 -2.688,6 -6,6 H 277.99998 c -3.312,0 -6,-2.688 -6,-6 v -27 c 0,-3.312 2.688,-6 6,-6 z m 319.99999,1 H 277.99998 c -2.76,0 -5,2.24 -5,5 v 27 c 0,2.76 2.24,5 5,5 h 319.99999 c 2.76,0 5,-2.24 5,-5 v -27 c 0,-2.76 -2.24,-5 -5,-5 z"
     style="fill:#d9d9d6;fill-opacity:1;fill-rule:nonzero;stroke:none;stroke-width:1.33333"
     clip-path="none"
     id="path118" />
  <path
     style="font-size:11.25px;font-family:Poppins;stroke-width:1.33333"
     d="m 207.78999,205.54501 v 6.615 q 0,1.395 0.675,2.07 0.69,0.675 1.905,0.675 1.2,0 1.875,-0.675 0.69,-0.675 0.69,-2.07 v -6.615 h 1.365 v 6.6 q 0,1.305 -0.525,2.205 -0.525,0.885 -1.425,1.32 -0.885,0.435 -1.995,0.435 -1.11,0 -2.01,-0.435 -0.885,-0.435 -1.41,-1.32 -0.51,-0.9 -0.51,-2.205 v -6.6 z m 11.69999,10.59 q -0.945,0 -1.695,-0.315 -0.75,-0.33 -1.185,-0.9 -0.435,-0.585 -0.48,-1.335 h 1.41 q 0.06,0.615 0.57,1.005 0.525,0.39 1.365,0.39 0.78,0 1.23,-0.345 0.45,-0.345 0.45,-0.87 0,-0.54 -0.48,-0.795 -0.48,-0.27 -1.485,-0.525 -0.915,-0.24 -1.5,-0.48 -0.57,-0.255 -0.99,-0.735 -0.405,-0.495 -0.405,-1.29 0,-0.63 0.375,-1.155 0.375,-0.525 1.065,-0.825 0.69,-0.315 1.575,-0.315 1.365,0 2.205,0.69 0.84,0.69 0.9,1.89 h -1.365 q -0.045,-0.645 -0.525,-1.035 -0.465,-0.39 -1.26,-0.39 -0.735,0 -1.17,0.315 -0.435,0.315 -0.435,0.825 0,0.405 0.255,0.675 0.27,0.255 0.66,0.42 0.405,0.15 1.11,0.345 0.885,0.24 1.44,0.48 0.555,0.225 0.945,0.69 0.405,0.465 0.42,1.215 0,0.675 -0.375,1.215 -0.375,0.54 -1.065,0.855 -0.675,0.3 -1.56,0.3 z m 12.41999,-4.56 q 0,0.39 -0.045,0.825 h -6.57 q 0.075,1.215 0.825,1.905 0.765,0.675 1.845,0.675 0.885,0 1.47,-0.405 0.6,-0.42 0.84,-1.11 h 1.47 q -0.33,1.185 -1.32,1.935 -0.99,0.735 -2.46,0.735 -1.17,0 -2.1,-0.525 -0.915,-0.525 -1.44,-1.485 -0.525,-0.975 -0.525,-2.25 0,-1.275 0.51,-2.235 0.51,-0.96 1.425,-1.47 0.93,-0.525 2.13,-0.525 1.17,0 2.07,0.51 0.9,0.51 1.38,1.41 0.495,0.885 0.495,2.01 z m -1.41,-0.285 q 0,-0.78 -0.345,-1.335 -0.345,-0.57 -0.945,-0.855 -0.585,-0.3 -1.305,-0.3 -1.035,0 -1.77,0.66 -0.72,0.66 -0.825,1.83 z m 4.57501,-2.175 q 0.36,-0.705 1.02,-1.095 0.675,-0.39 1.635,-0.39 v 1.41 h -0.36 q -2.295,0 -2.295,2.49 v 4.47 h -1.365 v -8.22 h 1.365 z m 7.13999,7.02 q -0.945,0 -1.695,-0.315 -0.75,-0.33 -1.185,-0.9 -0.435,-0.585 -0.48,-1.335 h 1.41 q 0.06,0.615 0.57,1.005 0.525,0.39 1.365,0.39 0.78,0 1.23,-0.345 0.45,-0.345 0.45,-0.87 0,-0.54 -0.48,-0.795 -0.48,-0.27 -1.485,-0.525 -0.915,-0.24 -1.5,-0.48 -0.57,-0.255 -0.99,-0.735 -0.405,-0.495 -0.405,-1.29 0,-0.63 0.375,-1.155 0.375,-0.525 1.065,-0.825 0.69,-0.315 1.575,-0.315 1.365,0 2.205,0.69 0.84,0.69 0.9,1.89 h -1.365 q -0.045,-0.645 -0.525,-1.035 -0.465,-0.39 -1.26,-0.39 -0.735,0 -1.17,0.315 -0.435,0.315 -0.435,0.825 0,0.405 0.255,0.675 0.27,0.255 0.66,0.42 0.405,0.15 1.11,0.345 0.885,0.24 1.44,0.48 0.555,0.225 0.945,0.69 0.405,0.465 0.42,1.215 0,0.675 -0.375,1.215 -0.375,0.54 -1.065,0.855 -0.675,0.3 -1.56,0.3 z"
     id="text118"
     clip-path="none"
     aria-label="Users" />
  <path
     d="m 271.99998,191 h 331.99999 v 38.99999 H 271.99998 Z"
     style="fill:#ffffff;fill-opacity:1;fill-rule:nonzero;stroke:none;stroke-width:1.33333"
     clip-path="none"
     id="path119" />
  <path
     d="m 277.99998,191 h 319.99999 c 3.312,0 6,2.688 6,6 v 26.99999 c 0,3.312 -2.688,6 -6,6 H 277.99998 c -3.312,0 -6,-2.688 -6,-6 V 197 c 0,-3.312 2.688,-6 6,-6 z m 319.99999,1 H 277.99998 c -2.76,0 -5,2.24 -5,5 v 26.99999 c 0,2.76 2.24,5 5,5 h 319.99999 c 2.76,0 5,-2.24 5,-5 V 197 c 0,-2.76 -2.24,-5 -5,-5 z"
     style="fill:#d9d9d6;fill-opacity:1;fill-rule:nonzero;stroke:none;stroke-width:1.33333"
     clip-path="none"
     id="path120" />
  <path
     style="font-size:11.25px;font-family:Poppins;stroke-width:1.33333"
     d="m 200.64165,261.57501 q -0.435,-0.915 -1.26,-1.41 -0.825,-0.51 -1.92,-0.51 -1.095,0 -1.98,0.51 -0.87,0.495 -1.38,1.44 -0.495,0.93 -0.495,2.16 0,1.23 0.495,2.16 0.51,0.93 1.38,1.44 0.885,0.495 1.98,0.495 1.53,0 2.52,-0.915 0.99,-0.915 1.155,-2.475 h -4.17 v -1.11 h 5.625 v 1.05 q -0.12,1.29 -0.81,2.37 -0.69,1.065 -1.815,1.695 -1.125,0.615 -2.505,0.615 -1.455,0 -2.655,-0.675 -1.2,-0.69 -1.905,-1.905 -0.69,-1.215 -0.69,-2.745 0,-1.53 0.69,-2.745 0.705,-1.23 1.905,-1.905 1.2,-0.69 2.655,-0.69 1.665,0 2.94,0.825 1.29,0.825 1.875,2.325 z m 5.115,0.54 q 0.36,-0.705 1.02,-1.095 0.675,-0.39 1.635,-0.39 v 1.41 h -0.36 q -2.295,0 -2.295,2.49 v 4.47 h -1.365 v -8.22 h 1.365 z m 7.81499,7.02 q -1.155,0 -2.1,-0.525 -0.93,-0.525 -1.47,-1.485 -0.525,-0.975 -0.525,-2.25 0,-1.26 0.54,-2.22 0.555,-0.975 1.5,-1.485 0.945,-0.525 2.115,-0.525 1.17,0 2.115,0.525 0.945,0.51 1.485,1.47 0.555,0.96 0.555,2.235 0,1.275 -0.57,2.25 -0.555,0.96 -1.515,1.485 -0.96,0.525 -2.13,0.525 z m 0,-1.2 q 0.735,0 1.38,-0.345 0.645,-0.345 1.035,-1.035 0.405,-0.69 0.405,-1.68 0,-0.99 -0.39,-1.68 -0.39,-0.69 -1.02,-1.02 -0.63,-0.345 -1.365,-0.345 -0.75,0 -1.38,0.345 -0.615,0.33 -0.99,1.02 -0.375,0.69 -0.375,1.68 0,1.005 0.36,1.695 0.375,0.69 0.99,1.035 0.615,0.33 1.35,0.33 z m 13.30499,-7.155 v 8.22 h -1.365 v -1.215 q -0.39,0.63 -1.095,0.99 -0.69,0.345 -1.53,0.345 -0.96,0 -1.725,-0.39 -0.765,-0.405 -1.215,-1.2 -0.435,-0.795 -0.435,-1.935 v -4.815 h 1.35 v 4.635 q 0,1.215 0.615,1.875 0.615,0.645 1.68,0.645 1.095,0 1.725,-0.675 0.63,-0.675 0.63,-1.965 v -4.515 z m 3.67499,1.515 q 0.405,-0.705 1.2,-1.17 0.81,-0.48 1.875,-0.48 1.095,0 1.98,0.525 0.9,0.525 1.41,1.485 0.51,0.945 0.51,2.205 0,1.245 -0.51,2.22 -0.51,0.975 -1.41,1.515 -0.885,0.54 -1.98,0.54 -1.05,0 -1.86,-0.465 -0.795,-0.48 -1.215,-1.185 v 5.415 h -1.365 v -12.12 h 1.365 z m 5.58,2.565 q 0,-0.93 -0.375,-1.62 -0.375,-0.69 -1.02,-1.05 -0.63,-0.36 -1.395,-0.36 -0.75,0 -1.395,0.375 -0.63,0.36 -1.02,1.065 -0.375,0.69 -0.375,1.605 0,0.93 0.375,1.635 0.39,0.69 1.02,1.065 0.645,0.36 1.395,0.36 0.765,0 1.395,-0.36 0.645,-0.375 1.02,-1.065 0.375,-0.705 0.375,-1.65 z m 6.105,4.275 q -0.945,0 -1.695,-0.315 -0.75,-0.33 -1.185,-0.9 -0.435,-0.585 -0.48,-1.335 h 1.41 q 0.06,0.615 0.57,1.005 0.525,0.39 1.365,0.39 0.78,0 1.23,-0.345 0.45,-0.345 0.45,-0.87 0,-0.54 -0.48,-0.795 -0.48,-0.27 -1.485,-0.525 -0.915,-0.24 -1.5,-0.48 -0.57,-0.255 -0.99,-0.735 -0.405,-0.495 -0.405,-1.29 0,-0.63 0.375,-1.155 0.375,-0.525 1.065,-0.825 0.69,-0.315 1.575,-0.315 1.365,0 2.205,0.69 0.84,0.69 0.9,1.89 h -1.365 q -0.045,-0.645 -0.525,-1.035 -0.465,-0.39 -1.26,-0.39 -0.735,0 -1.17,0.315 -0.435,0.315 -0.435,0.825 0,0.405 0.255,0.675 0.27,0.255 0.66,0.42 0.405,0.15 1.11,0.345 0.885,0.24 1.44,0.48 0.555,0.225 0.945,0.69 0.405,0.465 0.42,1.215 0,0.675 -0.375,1.215 -0.375,0.54 -1.065,0.855 -0.675,0.3 -1.56,0.3 z"
     id="text120"
     clip-path="none"
     aria-label="Groups" />
  <path
     d="m 271.99998,243.99999 h 331.99999 v 39 H 271.99998 Z"
     style="fill:#ffffff;fill-opacity:1;fill-rule:nonzero;stroke:none;stroke-width:1.33333"
     clip-path="none"
     id="path121" />
  <path
     d="m 277.99998,243.99999 h 319.99999 c 3.312,0 6,2.688 6,6 v 27 c 0,3.312 -2.688,6 -6,6 H 277.99998 c -3.312,0 -6,-2.688 -6,-6 v -27 c 0,-3.312 2.688,-6 6,-6 z m 319.99999,1 H 277.99998 c -2.76,0 -5,2.24 -5,5 v 27 c 0,2.76 2.24,5 5,5 h 319.99999 c 2.76,0 5,-2.24 5,-5 v -27 c 0,-2.76 -2.24,-5 -5,-5 z"
     style="fill:#d9d9d6;fill-opacity:1;fill-rule:nonzero;stroke:none;stroke-width:1.33333"
     clip-path="none"
     id="path122" />
  <path
     style="font-size:11.25px;font-family:Poppins;stroke-width:1.33333"
     d="m 146.23665,313.39001 h 3.66 v 1.11 h -5.025 v -10.455 h 1.365 z m 5.81999,-8.445 q -0.39,0 -0.66,-0.27 -0.27,-0.27 -0.27,-0.66 0,-0.39 0.27,-0.66 0.27,-0.27 0.66,-0.27 0.375,0 0.63,0.27 0.27,0.27 0.27,0.66 0,0.39 -0.27,0.66 -0.255,0.27 -0.63,0.27 z m 0.66,1.335 v 8.22 h -1.365 v -8.22 z m 12.21,-0.15 q 0.96,0 1.71,0.405 0.75,0.39 1.185,1.185 0.435,0.795 0.435,1.935 v 4.845 h -1.35 v -4.65 q 0,-1.23 -0.615,-1.875 -0.6,-0.66 -1.635,-0.66 -1.065,0 -1.695,0.69 -0.63,0.675 -0.63,1.965 v 4.53 h -1.35 v -4.65 q 0,-1.23 -0.615,-1.875 -0.6,-0.66 -1.635,-0.66 -1.065,0 -1.695,0.69 -0.63,0.675 -0.63,1.965 v 4.53 h -1.365 v -8.22 h 1.365 v 1.185 q 0.405,-0.645 1.08,-0.99 0.69,-0.345 1.515,-0.345 1.035,0 1.83,0.465 0.795,0.465 1.185,1.365 0.345,-0.87 1.14,-1.35 0.795,-0.48 1.77,-0.48 z m 6.27001,-1.185 q -0.39,0 -0.66,-0.27 -0.27,-0.27 -0.27,-0.66 0,-0.39 0.27,-0.66 0.27,-0.27 0.66,-0.27 0.375,0 0.63,0.27 0.27,0.27 0.27,0.66 0,0.39 -0.27,0.66 -0.255,0.27 -0.63,0.27 z m 0.66,1.335 v 8.22 h -1.365 v -8.22 z m 3.99001,1.125 v 4.845 q 0,0.6 0.255,0.855 0.255,0.24 0.885,0.24 h 1.005 v 1.155 h -1.23 q -1.14,0 -1.71,-0.525 -0.57,-0.525 -0.57,-1.725 v -4.845 h -1.065 v -1.125 h 1.065 v -2.07 h 1.365 v 2.07 h 2.145 v 1.125 z m 10.71,7.23 q -0.945,0 -1.695,-0.315 -0.75,-0.33 -1.185,-0.9 -0.435,-0.585 -0.48,-1.335 h 1.41 q 0.06,0.615 0.57,1.005 0.525,0.39 1.365,0.39 0.78,0 1.23,-0.345 0.45,-0.345 0.45,-0.87 0,-0.54 -0.48,-0.795 -0.48,-0.27 -1.485,-0.525 -0.915,-0.24 -1.5,-0.48 -0.57,-0.255 -0.99,-0.735 -0.405,-0.495 -0.405,-1.29 0,-0.63 0.375,-1.155 0.375,-0.525 1.065,-0.825 0.69,-0.315 1.575,-0.315 1.365,0 2.205,0.69 0.84,0.69 0.9,1.89 h -1.365 q -0.045,-0.645 -0.525,-1.035 -0.465,-0.39 -1.26,-0.39 -0.735,0 -1.17,0.315 -0.435,0.315 -0.435,0.825 0,0.405 0.255,0.675 0.27,0.255 0.66,0.42 0.405,0.15 1.11,0.345 0.885,0.24 1.44,0.48 0.555,0.225 0.945,0.69 0.405,0.465 0.42,1.215 0,0.675 -0.375,1.215 -0.375,0.54 -1.065,0.855 -0.675,0.3 -1.56,0.3 z m 12.41999,-4.56 q 0,0.39 -0.045,0.825 h -6.57 q 0.075,1.215 0.825,1.905 0.765,0.675 1.845,0.675 0.885,0 1.47,-0.405 0.6,-0.42 0.84,-1.11 h 1.47 q -0.33,1.185 -1.32,1.935 -0.99,0.735 -2.46,0.735 -1.17,0 -2.1,-0.525 -0.915,-0.525 -1.44,-1.485 -0.525,-0.975 -0.525,-2.25 0,-1.275 0.51,-2.235 0.51,-0.96 1.425,-1.47 0.93,-0.525 2.13,-0.525 1.17,0 2.07,0.51 0.9,0.51 1.38,1.41 0.495,0.885 0.495,2.01 z m -1.41,-0.285 q 0,-0.78 -0.345,-1.335 -0.345,-0.57 -0.945,-0.855 -0.585,-0.3 -1.305,-0.3 -1.035,0 -1.77,0.66 -0.72,0.66 -0.825,1.83 z m 6.12002,4.845 q -0.945,0 -1.695,-0.315 -0.75,-0.33 -1.185,-0.9 -0.435,-0.585 -0.48,-1.335 h 1.41 q 0.06,0.615 0.57,1.005 0.525,0.39 1.365,0.39 0.78,0 1.23,-0.345 0.45,-0.345 0.45,-0.87 0,-0.54 -0.48,-0.795 -0.48,-0.27 -1.485,-0.525 -0.915,-0.24 -1.5,-0.48 -0.57,-0.255 -0.99,-0.735 -0.405,-0.495 -0.405,-1.29 0,-0.63 0.375,-1.155 0.375,-0.525 1.065,-0.825 0.69,-0.315 1.575,-0.315 1.365,0 2.205,0.69 0.84,0.69 0.9,1.89 h -1.365 q -0.045,-0.645 -0.525,-1.035 -0.465,-0.39 -1.26,-0.39 -0.735,0 -1.17,0.315 -0.435,0.315 -0.435,0.825 0,0.405 0.255,0.675 0.27,0.255 0.66,0.42 0.405,0.15 1.11,0.345 0.885,0.24 1.44,0.48 0.555,0.225 0.945,0.69 0.405,0.465 0.42,1.215 0,0.675 -0.375,1.215 -0.375,0.54 -1.065,0.855 -0.675,0.3 -1.56,0.3 z m 7.82998,0 q -0.945,0 -1.695,-0.315 -0.75,-0.33 -1.185,-0.9 -0.435,-0.585 -0.48,-1.335 h 1.41 q 0.06,0.615 0.57,1.005 0.525,0.39 1.365,0.39 0.78,0 1.23,-0.345 0.45,-0.345 0.45,-0.87 0,-0.54 -0.48,-0.795 -0.48,-0.27 -1.485,-0.525 -0.915,-0.24 -1.5,-0.48 -0.57,-0.255 -0.99,-0.735 -0.405,-0.495 -0.405,-1.29 0,-0.63 0.375,-1.155 0.375,-0.525 1.065,-0.825 0.69,-0.315 1.575,-0.315 1.365,0 2.205,0.69 0.84,0.69 0.9,1.89 h -1.365 q -0.045,-0.645 -0.525,-1.035 -0.465,-0.39 -1.26,-0.39 -0.735,0 -1.17,0.315 -0.435,0.315 -0.435,0.825 0,0.405 0.255,0.675 0.27,0.255 0.66,0.42 0.405,0.15 1.11,0.345 0.885,0.24 1.44,0.48 0.555,0.225 0.945,0.69 0.405,0.465 0.42,1.215 0,0.675 -0.375,1.215 -0.375,0.54 -1.065,0.855 -0.675,0.3 -1.56,0.3 z m 5.625,-9.69 q -0.39,0 -0.66,-0.27 -0.27,-0.27 -0.27,-0.66 0,-0.39 0.27,-0.66 0.27,-0.27 0.66,-0.27 0.375,0 0.63,0.27 0.27,0.27 0.27,0.66 0,0.39 -0.27,0.66 -0.255,0.27 -0.63,0.27 z m 0.66,1.335 v 8.22 h -1.365 v -8.22 z m 5.91,8.355 q -1.155,0 -2.1,-0.525 -0.93,-0.525 -1.47,-1.485 -0.525,-0.975 -0.525,-2.25 0,-1.26 0.54,-2.22 0.555,-0.975 1.5,-1.485 0.945,-0.525 2.115,-0.525 1.17,0 2.115,0.525 0.945,0.51 1.485,1.47 0.555,0.96 0.555,2.235 0,1.275 -0.57,2.25 -0.555,0.96 -1.515,1.485 -0.96,0.525 -2.13,0.525 z m 0,-1.2 q 0.735,0 1.38,-0.345 0.645,-0.345 1.035,-1.035 0.405,-0.69 0.405,-1.68 0,-0.99 -0.39,-1.68 -0.39,-0.69 -1.02,-1.02 -0.63,-0.345 -1.365,-0.345 -0.75,0 -1.38,0.345 -0.615,0.33 -0.99,1.02 -0.375,0.69 -0.375,1.68 0,1.005 0.36,1.695 0.375,0.69 0.99,1.035 0.615,0.33 1.35,0.33 z m 10.01999,-7.305 q 1.5,0 2.43,0.915 0.93,0.9 0.93,2.61 v 4.845 h -1.35 v -4.65 q 0,-1.23 -0.615,-1.875 -0.615,-0.66 -1.68,-0.66 -1.08,0 -1.725,0.675 -0.63,0.675 -0.63,1.965 v 4.545 h -1.365 v -8.22 h 1.365 v 1.17 q 0.405,-0.63 1.095,-0.975 0.705,-0.345 1.545,-0.345 z m 8.50499,8.505 q -0.945,0 -1.695,-0.315 -0.75,-0.33 -1.185,-0.9 -0.435,-0.585 -0.48,-1.335 h 1.41 q 0.06,0.615 0.57,1.005 0.525,0.39 1.365,0.39 0.78,0 1.23,-0.345 0.45,-0.345 0.45,-0.87 0,-0.54 -0.48,-0.795 -0.48,-0.27 -1.485,-0.525 -0.915,-0.24 -1.5,-0.48 -0.57,-0.255 -0.99,-0.735 -0.405,-0.495 -0.405,-1.29 0,-0.63 0.375,-1.155 0.375,-0.525 1.065,-0.825 0.69,-0.315 1.575,-0.315 1.365,0 2.205,0.69 0.84,0.69 0.9,1.89 h -1.365 q -0.045,-0.645 -0.525,-1.035 -0.465,-0.39 -1.26,-0.39 -0.735,0 -1.17,0.315 -0.435,0.315 -0.435,0.825 0,0.405 0.255,0.675 0.27,0.255 0.66,0.42 0.405,0.15 1.11,0.345 0.885,0.24 1.44,0.48 0.555,0.225 0.945,0.69 0.405,0.465 0.42,1.215 0,0.675 -0.375,1.215 -0.375,0.54 -1.065,0.855 -0.675,0.3 -1.56,0.3 z m 71.14499,-0.135 h -1.365 l -5.49,-8.325 v 8.325 h -1.365 v -10.47 h 1.365 l 5.49,8.31 v -8.31 h 1.365 z m 5.90999,0.135 q -1.155,0 -2.1,-0.525 -0.93,-0.525 -1.47,-1.485 -0.525,-0.975 -0.525,-2.25 0,-1.26 0.54,-2.22 0.555,-0.975 1.5,-1.485 0.945,-0.525 2.115,-0.525 1.17,0 2.115,0.525 0.945,0.51 1.485,1.47 0.555,0.96 0.555,2.235 0,1.275 -0.57,2.25 -0.555,0.96 -1.515,1.485 -0.96,0.525 -2.13,0.525 z m 0,-1.2 q 0.735,0 1.38,-0.345 0.645,-0.345 1.035,-1.035 0.405,-0.69 0.405,-1.68 0,-0.99 -0.39,-1.68 -0.39,-0.69 -1.02,-1.02 -0.63,-0.345 -1.365,-0.345 -0.75,0 -1.38,0.345 -0.615,0.33 -0.99,1.02 -0.375,0.69 -0.375,1.68 0,1.005 0.36,1.695 0.375,0.69 0.99,1.035 0.615,0.33 1.35,0.33 z m 11.385,-10.035 v 11.1 h -1.365 v -11.1 z m 3.03,1.545 q -0.39,0 -0.66,-0.27 -0.27,-0.27 -0.27,-0.66 0,-0.39 0.27,-0.66 0.27,-0.27 0.66,-0.27 0.375,0 0.63,0.27 0.27,0.27 0.27,0.66 0,0.39 -0.27,0.66 -0.255,0.27 -0.63,0.27 z m 0.66,1.335 v 8.22 h -1.365 v -8.22 z m 12.20999,-0.15 q 0.96,0 1.71,0.405 0.75,0.39 1.185,1.185 0.435,0.795 0.435,1.935 v 4.845 h -1.35 v -4.65 q 0,-1.23 -0.615,-1.875 -0.6,-0.66 -1.635,-0.66 -1.065,0 -1.695,0.69 -0.63,0.675 -0.63,1.965 v 4.53 h -1.34999 v -4.65 q 0,-1.23 -0.615,-1.875 -0.6,-0.66 -1.635,-0.66 -1.065,0 -1.695,0.69 -0.63,0.675 -0.63,1.965 v 4.53 h -1.365 v -8.22 h 1.365 v 1.185 q 0.405,-0.645 1.08,-0.99 0.69,-0.345 1.515,-0.345 1.035,0 1.83,0.465 0.795,0.465 1.185,1.365 0.34499,-0.87 1.13999,-1.35 0.795,-0.48 1.77,-0.48 z m 6.27002,-1.185 q -0.39,0 -0.66,-0.27 -0.27,-0.27 -0.27,-0.66 0,-0.39 0.27,-0.66 0.27,-0.27 0.66,-0.27 0.375,0 0.63,0.27 0.27,0.27 0.27,0.66 0,0.39 -0.27,0.66 -0.255,0.27 -0.63,0.27 z m 0.66,1.335 v 8.22 h -1.365 v -8.22 z m 3.99001,1.125 v 4.845 q 0,0.6 0.255,0.855 0.255,0.24 0.885,0.24 h 1.005 v 1.155 h -1.23 q -1.14,0 -1.71,-0.525 -0.57,-0.525 -0.57,-1.725 v -4.845 h -1.065 v -1.125 h 1.065 v -2.07 h 1.365 v 2.07 h 2.145 v 1.125 z"
     id="path254"
     clip-path="none" />
  <path
     style="font-size:11.25px;font-family:Poppins;stroke-width:1.33333"
     d="m 315.75997,328.12001 v 10.38 h -1.365 v -7.74 l -3.45,7.74 h -0.96 l -3.465,-7.755 v 7.755 h -1.365 v -10.38 h 1.47 l 3.84,8.58 3.84,-8.58 z m 1.8,6.24 q 0,-1.26 0.51,-2.205 0.51,-0.96 1.395,-1.485 0.9,-0.525 1.995,-0.525 1.08,0 1.875,0.465 0.795,0.465 1.185,1.17 v -1.5 h 1.38 v 8.22 h -1.38 v -1.53 q -0.405,0.72 -1.215,1.2 -0.795,0.465 -1.86,0.465 -1.095,0 -1.98,-0.54 -0.885,-0.54 -1.395,-1.515 -0.51,-0.975 -0.51,-2.22 z m 6.96,0.015 q 0,-0.93 -0.375,-1.62 -0.375,-0.69 -1.02,-1.05 -0.63,-0.375 -1.395,-0.375 -0.765,0 -1.395,0.36 -0.63,0.36 -1.005,1.05 -0.375,0.69 -0.375,1.62 0,0.945 0.375,1.65 0.375,0.69 1.005,1.065 0.63,0.36 1.395,0.36 0.765,0 1.395,-0.36 0.645,-0.375 1.02,-1.065 0.375,-0.705 0.375,-1.635 z m 7.98,4.125 -1.95,-3.06 -1.875,3.06 h -1.425 l 2.655,-4.08 -2.655,-4.14 h 1.545 l 1.95,3.045 1.86,-3.045 h 1.425 l -2.64,4.065 2.655,4.155 z m 3.6,-9.555 q -0.39,0 -0.66,-0.27 -0.27,-0.27 -0.27,-0.66 0,-0.39 0.27,-0.66 0.27,-0.27 0.66,-0.27 0.375,0 0.63,0.27 0.27,0.27 0.27,0.66 0,0.39 -0.27,0.66 -0.255,0.27 -0.63,0.27 z m 0.66,1.335 v 8.22 h -1.365 v -8.22 z m 12.21001,-0.15 q 0.96,0 1.71,0.405 0.75,0.39 1.185,1.185 0.435,0.795 0.435,1.935 v 4.845 h -1.35 v -4.65 q 0,-1.23 -0.615,-1.875 -0.6,-0.66 -1.635,-0.66 -1.065,0 -1.695,0.69 -0.63,0.675 -0.63,1.965 v 4.53 h -1.35 v -4.65 q 0,-1.23 -0.615,-1.875 -0.6,-0.66 -1.635,-0.66 -1.065,0 -1.695,0.69 -0.63,0.675 -0.63,1.965 v 4.53 h -1.365 v -8.22 h 1.365 v 1.185 q 0.405,-0.645 1.08,-0.99 0.69,-0.345 1.515,-0.345 1.035,0 1.83,0.465 0.795,0.465 1.185,1.365 0.345,-0.87 1.14,-1.35 0.795,-0.48 1.77,-0.48 z m 12.85501,0.15 v 8.22 h -1.365 v -1.215 q -0.39,0.63 -1.095,0.99 -0.69,0.345 -1.53,0.345 -0.96,0 -1.725,-0.39 -0.765,-0.405 -1.215,-1.2 -0.435,-0.795 -0.435,-1.935 v -4.815 h 1.35 v 4.635 q 0,1.215 0.615,1.875 0.615,0.645 1.68,0.645 1.095,0 1.725,-0.675 0.63,-0.675 0.63,-1.965 v -4.515 z m 12.19499,-0.15 q 0.96,0 1.71,0.405 0.75,0.39 1.185,1.185 0.435,0.795 0.435,1.935 v 4.845 h -1.35 v -4.65 q 0,-1.23 -0.615,-1.875 -0.6,-0.66 -1.635,-0.66 -1.065,0 -1.695,0.69 -0.63,0.675 -0.63,1.965 v 4.53 h -1.35 v -4.65 q 0,-1.23 -0.615,-1.875 -0.6,-0.66 -1.635,-0.66 -1.065,0 -1.695,0.69 -0.63,0.675 -0.63,1.965 v 4.53 h -1.365 v -8.22 h 1.365 v 1.185 q 0.405,-0.645 1.08,-0.99 0.69,-0.345 1.515,-0.345 1.035,0 1.83,0.465 0.795,0.465 1.185,1.365 0.345,-0.87 1.14,-1.35 0.795,-0.48 1.77,-0.48 z m 13.57501,0 q 1.5,0 2.43,0.915 0.93,0.9 0.93,2.61 v 4.845 h -1.35 v -4.65 q 0,-1.23 -0.615,-1.875 -0.615,-0.66 -1.68,-0.66 -1.08,0 -1.725,0.675 -0.63,0.675 -0.63,1.965 v 4.545 h -1.365 v -8.22 h 1.365 v 1.17 q 0.405,-0.63 1.095,-0.975 0.705,-0.345 1.545,-0.345 z m 12.88499,0.15 v 8.22 h -1.365 v -1.215 q -0.39,0.63 -1.095,0.99 -0.69,0.345 -1.53,0.345 -0.96,0 -1.725,-0.39 -0.765,-0.405 -1.215,-1.2 -0.435,-0.795 -0.435,-1.935 v -4.815 h 1.35 v 4.635 q 0,1.215 0.615,1.875 0.615,0.645 1.68,0.645 1.095,0 1.725,-0.675 0.63,-0.675 0.63,-1.965 v -4.515 z m 12.19498,-0.15 q 0.96,0 1.71,0.405 0.75,0.39 1.185,1.185 0.435,0.795 0.435,1.935 v 4.845 h -1.35 v -4.65 q 0,-1.23 -0.615,-1.875 -0.6,-0.66 -1.635,-0.66 -1.065,0 -1.695,0.69 -0.63,0.675 -0.63,1.965 v 4.53 h -1.35 v -4.65 q 0,-1.23 -0.615,-1.875 -0.6,-0.66 -1.635,-0.66 -1.065,0 -1.695,0.69 -0.63,0.675 -0.63,1.965 v 4.53 h -1.365 v -8.22 h 1.365 v 1.185 q 0.405,-0.645 1.08,-0.99 0.69,-0.345 1.515,-0.345 1.035,0 1.83,0.465 0.795,0.465 1.185,1.365 0.345,-0.87 1.14,-1.35 0.795,-0.48 1.77,-0.48 z m 6.93002,1.68 q 0.42,-0.735 1.23,-1.2 0.81,-0.465 1.845,-0.465 1.11,0 1.995,0.525 0.885,0.525 1.395,1.485 0.51,0.945 0.51,2.205 0,1.245 -0.51,2.22 -0.51,0.975 -1.41,1.515 -0.885,0.54 -1.98,0.54 -1.065,0 -1.875,-0.465 -0.795,-0.465 -1.2,-1.185 v 1.515 h -1.365 v -11.1 h 1.365 z m 5.58,2.55 q 0,-0.93 -0.375,-1.62 -0.375,-0.69 -1.02,-1.05 -0.63,-0.36 -1.395,-0.36 -0.75,0 -1.395,0.375 -0.63,0.36 -1.02,1.065 -0.375,0.69 -0.375,1.605 0,0.93 0.375,1.635 0.39,0.69 1.02,1.065 0.645,0.36 1.395,0.36 0.765,0 1.395,-0.36 0.645,-0.375 1.02,-1.065 0.375,-0.705 0.375,-1.65 z m 10.69501,-0.285 q 0,0.39 -0.0449,0.825 h -6.57 q 0.0751,1.215 0.825,1.905 0.765,0.675 1.845,0.675 0.885,0 1.47,-0.405 0.6,-0.42 0.84,-1.11 h 1.47 q -0.33,1.185 -1.32,1.935 -0.99,0.735 -2.46,0.735 -1.17,0 -2.1,-0.525 -0.915,-0.525 -1.44,-1.485 -0.525,-0.975 -0.525,-2.25 0,-1.275 0.51,-2.235 0.51,-0.96 1.425,-1.47 0.93,-0.525 2.13,-0.525 1.17,0 2.07,0.51 0.9,0.51 1.38,1.41 0.495,0.885 0.495,2.01 z m -1.41,-0.285 q 0,-0.78 -0.345,-1.335 -0.345,-0.57 -0.945,-0.855 -0.585,-0.3 -1.305,-0.3 -1.035,0 -1.77,0.66 -0.72,0.66 -0.825,1.83 z m 4.57501,-2.175 q 0.36,-0.705 1.02,-1.095 0.675,-0.39 1.635,-0.39 v 1.41 h -0.36 q -2.295,0 -2.295,2.49 v 4.47 h -1.365 v -8.22 h 1.365 z m 11.81999,7.02 q -1.155,0 -2.1,-0.525 -0.93,-0.525 -1.47,-1.485 -0.525,-0.975 -0.525,-2.25 0,-1.26 0.54,-2.22 0.555,-0.975 1.5,-1.485 0.945,-0.525 2.115,-0.525 1.17,0 2.115,0.525 0.945,0.51 1.485,1.47 0.555,0.96 0.555,2.235 0,1.275 -0.57,2.25 -0.555,0.96 -1.515,1.485 -0.96,0.525 -2.13,0.525 z m 0,-1.2 q 0.735,0 1.38,-0.345 0.645,-0.345 1.035,-1.035 0.405,-0.69 0.405,-1.68 0,-0.99 -0.39,-1.68 -0.39,-0.69 -1.02,-1.02 -0.63,-0.345 -1.365,-0.345 -0.75,0 -1.38,0.345 -0.615,0.33 -0.99,1.02 -0.375,0.69 -0.375,1.68 0,1.005 0.36,1.695 0.375,0.69 0.99,1.035 0.615,0.33 1.35,0.33 z m 9.36,-6.03 h -1.725 v 7.095 h -1.365 v -7.095 h -1.065 v -1.125 h 1.065 v -0.585 q 0,-1.38 0.705,-2.01 0.72,-0.645 2.295,-0.645 v 1.14 q -0.9,0 -1.275,0.36 -0.36,0.345 -0.36,1.155 v 0.585 h 1.725 z m 12.885,-1.125 v 8.22 h -1.365 v -1.215 q -0.39,0.63 -1.095,0.99 -0.69,0.345 -1.53,0.345 -0.96,0 -1.725,-0.39 -0.765,-0.405 -1.215,-1.2 -0.435,-0.795 -0.435,-1.935 v -4.815 h 1.35 v 4.635 q 0,1.215 0.615,1.875 0.615,0.645 1.68,0.645 1.095,0 1.725,-0.675 0.63,-0.675 0.63,-1.965 v -4.515 z m 5.21998,8.355 q -0.945,0 -1.69499,-0.315 -0.75,-0.33 -1.185,-0.9 -0.435,-0.585 -0.48,-1.335 h 1.41 q 0.06,0.615 0.57,1.005 0.52499,0.39 1.36499,0.39 0.78,0 1.23,-0.345 0.45,-0.345 0.45,-0.87 0,-0.54 -0.48,-0.795 -0.48,-0.27 -1.485,-0.525 -0.915,-0.24 -1.49999,-0.48 -0.57,-0.255 -0.99,-0.735 -0.405,-0.495 -0.405,-1.29 0,-0.63 0.375,-1.155 0.375,-0.525 1.065,-0.825 0.68999,-0.315 1.57499,-0.315 1.365,0 2.205,0.69 0.84,0.69 0.9,1.89 h -1.365 q -0.045,-0.645 -0.525,-1.035 -0.465,-0.39 -1.26,-0.39 -0.735,0 -1.16999,0.315 -0.435,0.315 -0.435,0.825 0,0.405 0.255,0.675 0.27,0.255 0.65999,0.42 0.405,0.15 1.11,0.345 0.885,0.24 1.44,0.48 0.555,0.225 0.945,0.69 0.405,0.465 0.42,1.215 0,0.675 -0.375,1.215 -0.375,0.54 -1.065,0.855 -0.675,0.3 -1.56,0.3 z m 12.41999,-4.56 q 0,0.39 -0.0449,0.825 h -6.57 q 0.0751,1.215 0.825,1.905 0.765,0.675 1.845,0.675 0.885,0 1.47,-0.405 0.6,-0.42 0.84,-1.11 h 1.47 q -0.33,1.185 -1.32,1.935 -0.99,0.735 -2.46,0.735 -1.17,0 -2.1,-0.525 -0.915,-0.525 -1.44,-1.485 -0.525,-0.975 -0.525,-2.25 0,-1.275 0.51,-2.235 0.51,-0.96 1.425,-1.47 0.93,-0.525 2.13,-0.525 1.17,0 2.07,0.51 0.9,0.51 1.38,1.41 0.495,0.885 0.495,2.01 z m -1.41,-0.285 q 0,-0.78 -0.345,-1.335 -0.345,-0.57 -0.945,-0.855 -0.585,-0.3 -1.305,-0.3 -1.035,0 -1.77,0.66 -0.72,0.66 -0.825,1.83 z m 4.57501,-2.175 q 0.36,-0.705 1.02,-1.095 0.675,-0.39 1.635,-0.39 v 1.41 h -0.36 q -2.295,0 -2.295,2.49 v 4.47 h -1.365 v -8.22 h 1.365 z m 7.13999,7.02 q -0.945,0 -1.695,-0.315 -0.75,-0.33 -1.185,-0.9 -0.435,-0.585 -0.48,-1.335 h 1.41 q 0.06,0.615 0.57,1.005 0.525,0.39 1.365,0.39 0.78,0 1.23,-0.345 0.45,-0.345 0.45,-0.87 0,-0.54 -0.48,-0.795 -0.48,-0.27 -1.485,-0.525 -0.915,-0.24 -1.5,-0.48 -0.57,-0.255 -0.99,-0.735 -0.405,-0.495 -0.405,-1.29 0,-0.63 0.375,-1.155 0.375,-0.525 1.065,-0.825 0.69,-0.315 1.575,-0.315 1.365,0 2.205,0.69 0.84,0.69 0.9,1.89 h -1.365 q -0.0449,-0.645 -0.525,-1.035 -0.465,-0.39 -1.26,-0.39 -0.735,0 -1.17,0.315 -0.435,0.315 -0.435,0.825 0,0.405 0.255,0.675 0.27,0.255 0.66,0.42 0.405,0.15 1.11,0.345 0.885,0.24 1.44,0.48 0.555,0.225 0.945,0.69 0.405,0.465 0.42,1.215 0,0.675 -0.375,1.215 -0.375,0.54 -1.065,0.855 -0.675,0.3 -1.56,0.3 z m 10.29001,-6.84 q 0.405,-0.705 1.2,-1.17 0.81,-0.48 1.875,-0.48 1.095,0 1.98,0.525 0.9,0.525 1.41,1.485 0.51,0.945 0.51,2.205 0,1.245 -0.51,2.22 -0.51,0.975 -1.41,1.515 -0.885,0.54 -1.98,0.54 -1.05,0 -1.86,-0.465 -0.795,-0.48 -1.215,-1.185 v 5.415 h -1.365 v -12.12 h 1.365 z m 5.58,2.565 q 0,-0.93 -0.375,-1.62 -0.375,-0.69 -1.02,-1.05 -0.63,-0.36 -1.395,-0.36 -0.75,0 -1.395,0.375 -0.63,0.36 -1.02,1.065 -0.375,0.69 -0.375,1.605 0,0.93 0.375,1.635 0.39,0.69 1.02,1.065 0.645,0.36 1.395,0.36 0.765,0 1.395,-0.36 0.645,-0.375 1.02,-1.065 0.375,-0.705 0.375,-1.65 z m 10.69502,-0.285 q 0,0.39 -0.0449,0.825 h -6.57 q 0.0751,1.215 0.825,1.905 0.765,0.675 1.845,0.675 0.885,0 1.47,-0.405 0.6,-0.42 0.84,-1.11 h 1.47 q -0.33,1.185 -1.32,1.935 -0.99,0.735 -2.46,0.735 -1.17,0 -2.1,-0.525 -0.915,-0.525 -1.44,-1.485 -0.525,-0.975 -0.525,-2.25 0,-1.275 0.51,-2.235 0.51,-0.96 1.425,-1.47 0.93,-0.525 2.13,-0.525 1.17,0 2.07,0.51 0.9,0.51 1.38,1.41 0.495,0.885 0.495,2.01 z m -1.41,-0.285 q 0,-0.78 -0.345,-1.335 -0.345,-0.57 -0.945,-0.855 -0.585,-0.3 -1.305,-0.3 -1.035,0 -1.77,0.66 -0.72,0.66 -0.825,1.83 z m 4.575,-2.175 q 0.36,-0.705 1.02,-1.095 0.675,-0.39 1.635,-0.39 v 1.41 h -0.36 q -2.295,0 -2.295,2.49 v 4.47 h -1.365 v -8.22 h 1.365 z m 7.725,2.745 q 0,-1.26 0.51,-2.205 0.51,-0.96 1.395,-1.485 0.9,-0.525 1.995,-0.525 1.08,0 1.875,0.465 0.795,0.465 1.185,1.17 v -1.5 h 1.38 v 8.22 h -1.38 v -1.53 q -0.405,0.72 -1.215,1.2 -0.795,0.465 -1.86,0.465 -1.095,0 -1.98,-0.54 -0.885,-0.54 -1.395,-1.515 -0.51,-0.975 -0.51,-2.22 z m 6.96,0.015 q 0,-0.93 -0.375,-1.62 -0.375,-0.69 -1.02,-1.05 -0.63,-0.375 -1.395,-0.375 -0.765,0 -1.395,0.36 -0.63,0.36 -1.005,1.05 -0.375,0.69 -0.375,1.62 0,0.945 0.375,1.65 0.375,0.69 1.005,1.065 0.63,0.36 1.395,0.36 0.765,0 1.395,-0.36 0.645,-0.375 1.02,-1.065 0.375,-0.705 0.375,-1.635 z m 7.08,-4.23 q 1.065,0 1.86,0.465 0.81,0.465 1.2,1.17 v -1.5 h 1.38 v 8.4 q 0,1.125 -0.48,1.995 -0.48,0.885 -1.38,1.38 -0.885,0.495 -2.07,0.495 -1.62,0 -2.7,-0.765 -1.08,-0.765 -1.275,-2.085 h 1.35 q 0.225,0.75 0.93,1.2 0.705,0.465 1.695,0.465 1.125,0 1.83,-0.705 0.72,-0.705 0.72,-1.98 v -1.725 q -0.405,0.72 -1.2,1.2 -0.795,0.48 -1.86,0.48 -1.095,0 -1.995,-0.54 -0.885,-0.54 -1.395,-1.515 -0.51,-0.975 -0.51,-2.22 0,-1.26 0.51,-2.205 0.51,-0.96 1.395,-1.485 0.9,-0.525 1.995,-0.525 z m 3.06,4.23 q 0,-0.93 -0.375,-1.62 -0.375,-0.69 -1.02,-1.05 -0.63,-0.375 -1.395,-0.375 -0.765,0 -1.395,0.36 -0.63,0.36 -1.005,1.05 -0.375,0.69 -0.375,1.62 0,0.945 0.375,1.65 0.375,0.69 1.005,1.065 0.63,0.36 1.395,0.36 0.765,0 1.395,-0.36 0.645,-0.375 1.02,-1.065 0.375,-0.705 0.375,-1.635 z m 11.19001,-0.3 q 0,0.39 -0.0449,0.825 h -6.57 q 0.0749,1.215 0.825,1.905 0.765,0.675 1.845,0.675 0.885,0 1.47,-0.405 0.6,-0.42 0.84,-1.11 h 1.47 q -0.33,1.185 -1.32,1.935 -0.99,0.735 -2.46,0.735 -1.17,0 -2.1,-0.525 -0.915,-0.525 -1.44,-1.485 -0.525,-0.975 -0.525,-2.25 0,-1.275 0.51,-2.235 0.51,-0.96 1.425,-1.47 0.93,-0.525 2.13,-0.525 1.17,0 2.07,0.51 0.9,0.51 1.38,1.41 0.495,0.885 0.495,2.01 z m -1.41,-0.285 q 0,-0.78 -0.345,-1.335 -0.345,-0.57 -0.945,-0.855 -0.585,-0.3 -1.305,-0.3 -1.035,0 -1.77,0.66 -0.72,0.66 -0.825,1.83 z m 7.215,-3.66 q 1.5,0 2.43,0.915 0.93,0.9 0.93,2.61 v 4.845 h -1.35 v -4.65 q 0,-1.23 -0.615,-1.875 -0.615,-0.66 -1.68,-0.66 -1.08,0 -1.725,0.675 -0.63,0.675 -0.63,1.965 v 4.545 H 568.6 v -8.22 h 1.365 v 1.17 q 0.405,-0.63 1.095,-0.975 0.705,-0.345 1.545,-0.345 z m 7.26,1.275 v 4.845 q 0,0.6 0.255,0.855 0.255,0.24 0.885,0.24 h 1.005 v 1.155 h -1.23 q -1.14,0 -1.71,-0.525 -0.57,-0.525 -0.57,-1.725 v -4.845 h -1.065 v -1.125 h 1.065 v -2.07 h 1.365 v 2.07 h 2.145 v 1.125 z m 4.23,7.185 q -0.39,0 -0.66,-0.27 -0.27,-0.27 -0.27,-0.66 0,-0.39 0.27,-0.66 0.27,-0.27 0.66,-0.27 0.375,0 0.63,0.27 0.27,0.27 0.27,0.66 0,0.39 -0.27,0.66 -0.255,0.27 -0.63,0.27 z m 0,-6.42 q -0.39,0 -0.66,-0.27 -0.27,-0.27 -0.27,-0.66 0,-0.39 0.27,-0.66 0.27,-0.27 0.66,-0.27 0.375,0 0.63,0.27 0.27,0.27 0.27,0.66 0,0.39 -0.27,0.66 -0.255,0.27 -0.63,0.27 z"
     id="path255"
     clip-path="none" />
  <path
     d="m 303.99998,348.99999 h 299.99999 v 39 H 303.99998 Z"
     style="fill:#ffffff;fill-opacity:1;fill-rule:nonzero;stroke:none;stroke-width:1.33333"
     clip-path="none"
     id="path123" />
  <path
     d="m 309.99998,348.99999 h 287.99999 c 3.312,0 6,2.688 6,6 v 27 c 0,3.312 -2.688,6 -6,6 H 309.99998 c -3.312,0 -6,-2.688 -6,-6 v -27 c 0,-3.312 2.688,-6 6,-6 z m 287.99999,1 H 309.99998 c -2.76,0 -5,2.24 -5,5 v 27 c 0,2.76 2.24,5 5,5 h 287.99999 c 2.76,0 5,-2.24 5,-5 v -27 c 0,-2.76 -2.24,-5 -5,-5 z"
     style="fill:#d9d9d6;fill-opacity:1;fill-rule:nonzero;stroke:none;stroke-width:1.33333"
     clip-path="none"
     id="path124" />
  <rect
     style="fill:#9e0000;fill-opacity:1"
     id="rect245"
     width="120"
     height="39"
     x="97.250641"
     y="430.01746"
     rx="6"
     clip-path="none" />
  <path
     style="font-weight:600;font-size:11.25px;font-family:Poppins;fill:#ffffff;stroke-width:1.33333"
     d="m 137.695,444.52998 q 1.65,0 2.895,0.645 1.26,0.645 1.935,1.845 0.69,1.185 0.69,2.76 0,1.575 -0.69,2.76 -0.675,1.17 -1.935,1.815 -1.245,0.645 -2.895,0.645 h -3.66 v -10.47 z m -0.075,8.685 q 1.65,0 2.55,-0.9 0.9,-0.9 0.9,-2.535 0,-1.635 -0.9,-2.55 -0.9,-0.93 -2.55,-0.93 h -1.485 v 6.915 z m 14.89501,-2.55 q 0,0.45 -0.06,0.81 h -6.075 q 0.075,0.9 0.63,1.41 0.555,0.51 1.365,0.51 1.17,0 1.665,-1.005 h 2.265 q -0.36,1.2 -1.38,1.98 -1.02,0.765 -2.505,0.765 -1.2,0 -2.16,-0.525 -0.945,-0.54 -1.485,-1.515 -0.525,-0.975 -0.525,-2.25 0,-1.29 0.525,-2.265 0.525,-0.975 1.47,-1.5 0.945,-0.525 2.175,-0.525 1.185,0 2.115,0.51 0.945,0.51 1.455,1.455 0.525,0.93 0.525,2.145 z m -2.175,-0.6 q -0.015,-0.81 -0.585,-1.29 -0.57,-0.495 -1.395,-0.495 -0.78,0 -1.32,0.48 -0.525,0.465 -0.645,1.305 z m 5.80501,-6.165 v 11.1 h -2.1 v -11.1 z m 9.795,6.765 q 0,0.45 -0.06,0.81 h -6.075 q 0.075,0.9 0.63,1.41 0.555,0.51 1.365,0.51 1.17,0 1.665,-1.005 h 2.265 q -0.36,1.2 -1.38,1.98 -1.02,0.765 -2.505,0.765 -1.2,0 -2.16,-0.525 -0.945,-0.54 -1.485,-1.515 -0.525,-0.975 -0.525,-2.25 0,-1.29 0.525,-2.265 0.525,-0.975 1.47,-1.5 0.945,-0.525 2.175,-0.525 1.185,0 2.115,0.51 0.945,0.51 1.455,1.455 0.525,0.93 0.525,2.145 z m -2.175,-0.6 q -0.015,-0.81 -0.585,-1.29 -0.57,-0.495 -1.395,-0.495 -0.78,0 -1.32,0.48 -0.525,0.465 -0.645,1.305 z m 6.15001,-1.65 v 4.02 q 0,0.42 0.195,0.615 0.21,0.18 0.69,0.18 h 0.975 v 1.77 h -1.32 q -2.655,0 -2.655,-2.58 v -4.005 h -0.99 v -1.725 h 0.99 v -2.055 h 2.115 v 2.055 h 1.86 v 1.725 z m 11.10001,2.25 q 0,0.45 -0.06,0.81 h -6.075 q 0.075,0.9 0.63,1.41 0.555,0.51 1.365,0.51 1.17,0 1.665,-1.005 h 2.265 q -0.36,1.2 -1.38,1.98 -1.02,0.765 -2.505,0.765 -1.2,0 -2.16,-0.525 -0.945,-0.54 -1.485,-1.515 -0.525,-0.975 -0.525,-2.25 0,-1.29 0.525,-2.265 0.525,-0.975 1.47,-1.5 0.945,-0.525 2.175,-0.525 1.185,0 2.115,0.51 0.945,0.51 1.455,1.455 0.525,0.93 0.525,2.145 z m -2.175,-0.6 q -0.015,-0.81 -0.585,-1.29 -0.57,-0.495 -1.395,-0.495 -0.78,0 -1.32,0.48 -0.525,0.465 -0.645,1.305 z"
     id="text127"
     clip-path="none"
     aria-label="Delete" />
  <path
     style="font-size:11.25px;font-family:Poppins;stroke-width:1.33333"
     d="m 131.64166,494.04498 -3.405,6.51 v 3.945 h -1.365 v -3.945 l -3.42,-6.51 h 1.515 l 2.58,5.295 2.58,-5.295 z m 8.93999,6.03 q 0,0.39 -0.045,0.825 h -6.57 q 0.075,1.215 0.825,1.905 0.765,0.675 1.845,0.675 0.885,0 1.47,-0.405 0.6,-0.42 0.84,-1.11 h 1.47 q -0.33,1.185 -1.32,1.935 -0.99,0.735 -2.46,0.735 -1.17,0 -2.1,-0.525 -0.915,-0.525 -1.44,-1.485 -0.525,-0.975 -0.525,-2.25 0,-1.275 0.51,-2.235 0.51,-0.96 1.425,-1.47 0.93,-0.525 2.13,-0.525 1.17,0 2.07,0.51 0.9,0.51 1.38,1.41 0.495,0.885 0.495,2.01 z m -1.41,-0.285 q 0,-0.78 -0.345,-1.335 -0.345,-0.57 -0.945,-0.855 -0.585,-0.3 -1.305,-0.3 -1.035,0 -1.77,0.66 -0.72,0.66 -0.825,1.83 z m 6.12002,4.845 q -0.945,0 -1.695,-0.315 -0.75,-0.33 -1.185,-0.9 -0.435,-0.585 -0.48,-1.335 h 1.41 q 0.06,0.615 0.57,1.005 0.525,0.39 1.365,0.39 0.78,0 1.23,-0.345 0.45,-0.345 0.45,-0.87 0,-0.54 -0.48,-0.795 -0.48,-0.27 -1.485,-0.525 -0.915,-0.24 -1.5,-0.48 -0.57,-0.255 -0.99,-0.735 -0.405,-0.495 -0.405,-1.29 0,-0.63 0.375,-1.155 0.375,-0.525 1.065,-0.825 0.69,-0.315 1.575,-0.315 1.365,0 2.205,0.69 0.84,0.69 0.9,1.89 h -1.365 q -0.045,-0.645 -0.525,-1.035 -0.465,-0.39 -1.26,-0.39 -0.735,0 -1.17,0.315 -0.435,0.315 -0.435,0.825 0,0.405 0.255,0.675 0.27,0.255 0.66,0.42 0.405,0.15 1.11,0.345 0.885,0.24 1.44,0.48 0.555,0.225 0.945,0.69 0.405,0.465 0.42,1.215 0,0.675 -0.375,1.215 -0.375,0.54 -1.065,0.855 -0.675,0.3 -1.56,0.3 z m 6.32999,-2.025 -1.68,4.035 h -0.915 l 1.095,-4.035 z m 6.93,-4.995 q 0.36,-0.705 1.02,-1.095 0.675,-0.39 1.635,-0.39 v 1.41 h -0.36 q -2.295,0 -2.295,2.49 v 4.47 h -1.365 v -8.22 h 1.365 z m 11.72999,2.46 q 0,0.39 -0.045,0.825 h -6.57 q 0.075,1.215 0.825,1.905 0.765,0.675 1.845,0.675 0.885,0 1.47,-0.405 0.6,-0.42 0.84,-1.11 h 1.47 q -0.33,1.185 -1.32,1.935 -0.99,0.735 -2.46,0.735 -1.17,0 -2.1,-0.525 -0.915,-0.525 -1.44,-1.485 -0.525,-0.975 -0.525,-2.25 0,-1.275 0.51,-2.235 0.51,-0.96 1.425,-1.47 0.93,-0.525 2.13,-0.525 1.17,0 2.07,0.51 0.9,0.51 1.38,1.41 0.495,0.885 0.495,2.01 z m -1.41,-0.285 q 0,-0.78 -0.345,-1.335 -0.345,-0.57 -0.945,-0.855 -0.585,-0.3 -1.305,-0.3 -1.035,0 -1.77,0.66 -0.72,0.66 -0.825,1.83 z m 2.70001,0.57 q 0,-1.26 0.51,-2.205 0.51,-0.96 1.395,-1.485 0.9,-0.525 1.995,-0.525 1.08,0 1.875,0.465 0.795,0.465 1.185,1.17 v -1.5 h 1.38 v 8.22 h -1.38 v -1.53 q -0.405,0.72 -1.215,1.2 -0.795,0.465 -1.86,0.465 -1.095,0 -1.98,-0.54 -0.885,-0.54 -1.395,-1.515 -0.51,-0.975 -0.51,-2.22 z m 6.96,0.015 q 0,-0.93 -0.375,-1.62 -0.375,-0.69 -1.02,-1.05 -0.63,-0.375 -1.395,-0.375 -0.765,0 -1.395,0.36 -0.63,0.36 -1.005,1.05 -0.375,0.69 -0.375,1.62 0,0.945 0.375,1.65 0.375,0.69 1.005,1.065 0.63,0.36 1.395,0.36 0.765,0 1.395,-0.36 0.645,-0.375 1.02,-1.065 0.375,-0.705 0.375,-1.635 z m 5.05501,-6.975 v 11.1 h -1.365 v -11.1 z m 3.69,0 v 11.1 h -1.365 v -11.1 z m 9.40501,2.88 -4.95,12.09 h -1.41 l 1.62,-3.96 -3.315,-8.13 h 1.515 l 2.58,6.66 2.55,-6.66 z m 4.85999,4.08 q 0,-1.26 0.51,-2.205 0.51,-0.96 1.395,-1.485 0.9,-0.525 2.01,-0.525 0.96,0 1.785,0.45 0.825,0.435 1.26,1.155 v -4.35 h 1.38 v 11.1 h -1.38 v -1.545 q -0.405,0.735 -1.2,1.215 -0.795,0.465 -1.86,0.465 -1.095,0 -1.995,-0.54 -0.885,-0.54 -1.395,-1.515 -0.51,-0.975 -0.51,-2.22 z m 6.96,0.015 q 0,-0.93 -0.375,-1.62 -0.375,-0.69 -1.02,-1.05 -0.63,-0.375 -1.395,-0.375 -0.765,0 -1.395,0.36 -0.63,0.36 -1.005,1.05 -0.375,0.69 -0.375,1.62 0,0.945 0.375,1.65 0.375,0.69 1.005,1.065 0.63,0.36 1.395,0.36 0.765,0 1.395,-0.36 0.645,-0.375 1.02,-1.065 0.375,-0.705 0.375,-1.635 z m 11.19001,-0.3 q 0,0.39 -0.045,0.825 h -6.57 q 0.075,1.215 0.825,1.905 0.765,0.675 1.845,0.675 0.885,0 1.47,-0.405 0.6,-0.42 0.84,-1.11 h 1.47 q -0.33,1.185 -1.32,1.935 -0.99,0.735 -2.46,0.735 -1.17,0 -2.1,-0.525 -0.915,-0.525 -1.44,-1.485 -0.525,-0.975 -0.525,-2.25 0,-1.275 0.51,-2.235 0.51,-0.96 1.425,-1.47 0.93,-0.525 2.13,-0.525 1.17,0 2.07,0.51 0.9,0.51 1.38,1.41 0.495,0.885 0.495,2.01 z m -1.41,-0.285 q 0,-0.78 -0.345,-1.335 -0.345,-0.57 -0.945,-0.855 -0.585,-0.3 -1.305,-0.3 -1.035,0 -1.77,0.66 -0.72,0.66 -0.825,1.83 z m 4.57501,-6.39 v 11.1 h -1.365 v -11.1 z m 9.82501,6.675 q 0,0.39 -0.045,0.825 h -6.57 q 0.075,1.215 0.825,1.905 0.765,0.675 1.845,0.675 0.885,0 1.47,-0.405 0.6,-0.42 0.84,-1.11 h 1.47 q -0.33,1.185 -1.32,1.935 -0.99,0.735 -2.46,0.735 -1.17,0 -2.1,-0.525 -0.915,-0.525 -1.44,-1.485 -0.525,-0.975 -0.525,-2.25 0,-1.275 0.51,-2.235 0.51,-0.96 1.425,-1.47 0.93,-0.525 2.13,-0.525 1.17,0 2.07,0.51 0.9,0.51 1.38,1.41 0.495,0.885 0.495,2.01 z m -1.41,-0.285 q 0,-0.78 -0.345,-1.335 -0.345,-0.57 -0.945,-0.855 -0.585,-0.3 -1.305,-0.3 -1.035,0 -1.77,0.66 -0.72,0.66 -0.825,1.83 z m 4.87501,-2.385 v 4.845 q 0,0.6 0.255,0.855 0.255,0.24 0.885,0.24 h 1.005 v 1.155 h -1.23 q -1.14,0 -1.71,-0.525 -0.57,-0.525 -0.57,-1.725 v -4.845 h -1.065 v -1.125 h 1.065 v -2.07 h 1.365 v 2.07 h 2.145 v 1.125 z m 11.295,2.67 q 0,0.39 -0.045,0.825 h -6.57 q 0.075,1.215 0.825,1.905 0.765,0.675 1.845,0.675 0.885,0 1.47,-0.405 0.6,-0.42 0.84,-1.11 h 1.47 q -0.33,1.185 -1.32,1.935 -0.99,0.735 -2.46,0.735 -1.17,0 -2.1,-0.525 -0.915,-0.525 -1.44,-1.485 -0.525,-0.975 -0.525,-2.25 0,-1.275 0.51,-2.235 0.51,-0.96 1.425,-1.47 0.93,-0.525 2.13,-0.525 1.17,0 2.07,0.51 0.9,0.51 1.38,1.41 0.495,0.885 0.495,2.01 z m -1.41,-0.285 q 0,-0.78 -0.345,-1.335 -0.345,-0.57 -0.945,-0.855 -0.585,-0.3 -1.305,-0.3 -1.035,0 -1.77,0.66 -0.72,0.66 -0.825,1.83 z m 10.12503,4.845 q -0.945,0 -1.695,-0.315 -0.75,-0.33 -1.185,-0.9 -0.435,-0.585 -0.48,-1.335 h 1.41 q 0.06,0.615 0.57,1.005 0.525,0.39 1.365,0.39 0.78,0 1.23,-0.345 0.45,-0.345 0.45,-0.87 0,-0.54 -0.48,-0.795 -0.48,-0.27 -1.485,-0.525 -0.915,-0.24 -1.5,-0.48 -0.57,-0.255 -0.99,-0.735 -0.405,-0.495 -0.405,-1.29 0,-0.63 0.375,-1.155 0.375,-0.525 1.065,-0.825 0.69,-0.315 1.575,-0.315 1.365,0 2.205,0.69 0.84,0.69 0.9,1.89 h -1.365 q -0.045,-0.645 -0.525,-1.035 -0.465,-0.39 -1.26,-0.39 -0.735,0 -1.17,0.315 -0.435,0.315 -0.435,0.825 0,0.405 0.255,0.675 0.27,0.255 0.66,0.42 0.405,0.15 1.11,0.345 0.885,0.24 1.44,0.48 0.555,0.225 0.945,0.69 0.405,0.465 0.42,1.215 0,0.675 -0.375,1.215 -0.375,0.54 -1.065,0.855 -0.675,0.3 -1.56,0.3 z m 12.20998,-8.355 v 8.22 h -1.365 v -1.215 q -0.39,0.63 -1.095,0.99 -0.69,0.345 -1.53,0.345 -0.96,0 -1.725,-0.39 -0.765,-0.405 -1.215,-1.2 -0.435,-0.795 -0.435,-1.935 v -4.815 h 1.35 v 4.635 q 0,1.215 0.615,1.875 0.615,0.645 1.68,0.645 1.095,0 1.725,-0.675 0.63,-0.675 0.63,-1.965 v -4.515 z m 3.675,1.53 q 0.42,-0.735 1.23,-1.2 0.81,-0.465 1.845,-0.465 1.11,0 1.995,0.525 0.885,0.525 1.395,1.485 0.51,0.945 0.51,2.205 0,1.245 -0.51,2.22 -0.51,0.975 -1.41,1.515 -0.885,0.54 -1.98,0.54 -1.065,0 -1.875,-0.465 -0.795,-0.465 -1.2,-1.185 v 1.515 h -1.365 v -11.1 h 1.365 z m 5.58,2.55 q 0,-0.93 -0.375,-1.62 -0.375,-0.69 -1.02,-1.05 -0.63,-0.36 -1.395,-0.36 -0.75,0 -1.395,0.375 -0.63,0.36 -1.02,1.065 -0.375,0.69 -0.375,1.605 0,0.93 0.375,1.635 0.39,0.69 1.02,1.065 0.645,0.36 1.395,0.36 0.765,0 1.395,-0.36 0.645,-0.375 1.02,-1.065 0.375,-0.705 0.375,-1.65 z m 2.685,0.015 q 0,-1.275 0.51,-2.22 0.51,-0.96 1.41,-1.485 0.915,-0.525 2.085,-0.525 1.515,0 2.49,0.735 0.99,0.735 1.305,2.04 h -1.47 q -0.21,-0.75 -0.825,-1.185 -0.6,-0.435 -1.5,-0.435 -1.17,0 -1.89,0.81 -0.72,0.795 -0.72,2.265 0,1.485 0.72,2.295 0.72,0.81 1.89,0.81 0.9,0 1.5,-0.42 0.6,-0.42 0.825,-1.2 h 1.47 q -0.33,1.26 -1.32,2.025 -0.99,0.75 -2.475,0.75 -1.17,0 -2.085,-0.525 -0.9,-0.525 -1.41,-1.485 -0.51,-0.96 -0.51,-2.25 z m 10.98,-6.975 v 11.1 h -1.365 v -11.1 z m 9.61502,2.88 v 8.22 h -1.365 v -1.215 q -0.39,0.63 -1.095,0.99 -0.69,0.345 -1.53,0.345 -0.96,0 -1.725,-0.39 -0.765,-0.405 -1.215,-1.2 -0.435,-0.795 -0.435,-1.935 v -4.815 h 1.35 v 4.635 q 0,1.215 0.615,1.875 0.615,0.645 1.68,0.645 1.095,0 1.725,-0.675 0.63,-0.675 0.63,-1.965 v -4.515 z m 5.22,8.355 q -0.945,0 -1.695,-0.315 -0.75,-0.33 -1.185,-0.9 -0.435,-0.585 -0.48,-1.335 h 1.41 q 0.06,0.615 0.57,1.005 0.525,0.39 1.365,0.39 0.78,0 1.23,-0.345 0.45,-0.345 0.45,-0.87 0,-0.54 -0.48,-0.795 -0.48,-0.27 -1.485,-0.525 -0.915,-0.24 -1.5,-0.48 -0.57,-0.255 -0.99,-0.735 -0.405,-0.495 -0.405,-1.29 0,-0.63 0.375,-1.155 0.375,-0.525 1.065,-0.825 0.69,-0.315 1.575,-0.315 1.365,0 2.205,0.69 0.84,0.69 0.9,1.89 h -1.365 q -0.0449,-0.645 -0.525,-1.035 -0.465,-0.39 -1.26,-0.39 -0.735,0 -1.17,0.315 -0.435,0.315 -0.435,0.825 0,0.405 0.255,0.675 0.27,0.255 0.66,0.42 0.405,0.15 1.11,0.345 0.885,0.24 1.44,0.48 0.555,0.225 0.945,0.69 0.405,0.465 0.42,1.215 0,0.675 -0.375,1.215 -0.375,0.54 -1.065,0.855 -0.675,0.3 -1.56,0.3 z m 6.58497,-7.23 v 4.845 q 0,0.6 0.255,0.855 0.255,0.24 0.885,0.24 h 1.005 v 1.155 h -1.23 q -1.14,0 -1.71,-0.525 -0.57,-0.525 -0.57,-1.725 v -4.845 h -1.065 v -1.125 h 1.065 v -2.07 h 1.365 v 2.07 h 2.145 v 1.125 z m 11.295,2.67 q 0,0.39 -0.0449,0.825 h -6.56999 q 0.0751,1.215 0.825,1.905 0.765,0.675 1.845,0.675 0.885,0 1.47,-0.405 0.6,-0.42 0.84,-1.11 h 1.46999 q -0.33,1.185 -1.31999,1.935 -0.99,0.735 -2.46,0.735 -1.17,0 -2.1,-0.525 -0.915,-0.525 -1.44,-1.485 -0.525,-0.975 -0.525,-2.25 0,-1.275 0.51,-2.235 0.51,-0.96 1.425,-1.47 0.93,-0.525 2.13,-0.525 1.17,0 2.07,0.51 0.9,0.51 1.37999,1.41 0.495,0.885 0.495,2.01 z m -1.41,-0.285 q 0,-0.78 -0.345,-1.335 -0.345,-0.57 -0.945,-0.855 -0.585,-0.3 -1.305,-0.3 -1.035,0 -1.77,0.66 -0.72,0.66 -0.825,1.83 z m 4.57502,-2.175 q 0.36,-0.705 1.02,-1.095 0.675,-0.39 1.635,-0.39 v 1.41 h -0.36 q -2.295,0 -2.295,2.49 v 4.47 h -1.365 v -8.22 h 1.365 z"
     id="text128"
     clip-path="none"
     aria-label="Yes, really delete subcluster" />
  <rect
     style="fill:#d9d9d6;fill-opacity:1"
     id="rect246"
     width="120"
     height="39"
     x="482.73465"
     y="430"
     rx="6"
     clip-path="none" />
  <path
     style="font-weight:600;font-size:11.25px;font-family:Poppins;stroke-width:1.33333"
     d="m 528.61665,455.10498 q -1.095,0 -1.98,-0.375 -0.87,-0.375 -1.38,-1.08 -0.51,-0.705 -0.525,-1.665 h 2.25 q 0.045,0.645 0.45,1.02 0.42,0.375 1.14,0.375 0.735,0 1.155,-0.345 0.42,-0.36 0.42,-0.93 0,-0.465 -0.285,-0.765 -0.285,-0.3 -0.72,-0.465 -0.42,-0.18 -1.17,-0.39 -1.02,-0.3 -1.665,-0.585 -0.63,-0.3 -1.095,-0.885 -0.45,-0.6 -0.45,-1.59 0,-0.93 0.465,-1.62 0.465,-0.69 1.305,-1.05 0.84,-0.375 1.92,-0.375 1.62,0 2.625,0.795 1.02,0.78 1.125,2.19 h -2.31 q -0.03,-0.54 -0.465,-0.885 -0.42,-0.36 -1.125,-0.36 -0.615,0 -0.99,0.315 -0.36,0.315 -0.36,0.915 0,0.42 0.27,0.705 0.285,0.27 0.69,0.45 0.42,0.165 1.17,0.39 1.02,0.3 1.665,0.6 0.645,0.3 1.11,0.9 0.465,0.6 0.465,1.575 0,0.84 -0.435,1.56 -0.435,0.72 -1.275,1.155 -0.84,0.42 -1.995,0.42 z m 4.97999,-4.29 q 0,-1.26 0.495,-2.235 0.51,-0.975 1.365,-1.5 0.87,-0.525 1.935,-0.525 0.93,0 1.62,0.375 0.705,0.375 1.125,0.945 v -1.185 h 2.115 v 8.31 h -2.115 v -1.215 q -0.405,0.585 -1.125,0.975 -0.705,0.375 -1.635,0.375 -1.05,0 -1.92,-0.54 -0.855,-0.54 -1.365,-1.515 -0.495,-0.99 -0.495,-2.265 z m 6.54,0.03 q 0,-0.765 -0.3,-1.305 -0.3,-0.555 -0.81,-0.84 -0.51,-0.3 -1.095,-0.3 -0.585,0 -1.08,0.285 -0.495,0.285 -0.81,0.84 -0.3,0.54 -0.3,1.29 0,0.75 0.3,1.32 0.315,0.555 0.81,0.855 0.51,0.3 1.08,0.3 0.585,0 1.095,-0.285 0.51,-0.3 0.81,-0.84 0.3,-0.555 0.3,-1.32 z m 7.63499,2.22 2.1,-6.375 h 2.235 l -3.075,8.31 h -2.55 l -3.06,-8.31 h 2.25 z m 13.24502,-2.4 q 0,0.45 -0.06,0.81 h -6.075 q 0.075,0.9 0.63,1.41 0.555,0.51 1.365,0.51 1.17,0 1.665,-1.005 h 2.265 q -0.36,1.2 -1.38,1.98 -1.02,0.765 -2.505,0.765 -1.2,0 -2.16,-0.525 -0.945,-0.54 -1.485,-1.515 -0.525,-0.975 -0.525,-2.25 0,-1.29 0.525,-2.265 0.525,-0.975 1.47,-1.5 0.945,-0.525 2.175,-0.525 1.185,0 2.115,0.51 0.945,0.51 1.455,1.455 0.525,0.93 0.525,2.145 z m -2.175,-0.6 q -0.015,-0.81 -0.585,-1.29 -0.57,-0.495 -1.395,-0.495 -0.78,0 -1.32,0.48 -0.525,0.465 -0.645,1.305 z"
     id="text129"
     clip-path="none"
     aria-label="Save" />
  <path
     d="m 280.99998,304.26533 h 10 v 10 h -10 z"
     style="fill:#ffffff;fill-opacity:1;fill-rule:nonzero;stroke:none;stroke-width:1.33333"
     clip-path="none"
     id="path129" />
  <path
     d="m 285.99998,301.26533 c 4.416,0 8,3.584 8,8 0,4.41733 -3.584,8 -8,8 -4.416,0 -8,-3.58267 -8,-8 0,-4.416 3.584,-8 8,-8 z m 0,4 c -2.208,0 -4,1.792 -4,4 0,2.208 1.792,4 4,4 2.208,0 4,-1.792 4,-4 0,-2.208 -1.792,-4 -4,-4 z"
     style="fill:#00249c;fill-opacity:1;fill-rule:nonzero;stroke:none;stroke-width:1.33333"
     clip-path="none"
     id="path131" />
  <path
     d="m 285.99998,325.26533 c 4.416,0 8,3.584 8,8 0,4.41733 -3.584,8 -8,8 -4.416,0 -8,-3.58267 -8,-8 0,-4.416 3.584,-8 8,-8 z"
     style="fill:#d9d9d6;fill-opacity:1;fill-rule:nonzero;stroke:none;stroke-width:1.33333"
     clip-path="none"
     id="path244" />
  <rect
     style="fill:#d9d9d6;fill-opacity:1"
     id="rect244"
     width="16"
     height="16"
     x="97.250641"
     y="491.26532"
     rx="4"
     clip-path="none" />
  <path
     id="rect2"
     style="fill:#d9d9d6;fill-opacity:1;stroke:none;stroke-width:6.53514;stroke-dasharray:none;stroke-opacity:1;opacity:1"
     d="M 12 0 C 5.352 0 0 5.352 0 12 L 0 529 C 0 535.648 5.352 541 12 541 L 688 541 C 694.648 541 700 535.648 700 529 L 700 12 C 700 5.352 694.648 0 688 0 L 12 0 z M 12 1 L 688 1 C 694.094 1 699 5.906 699 12 L 699 529 C 699 535.094 694.094 540 688 540 L 12 540 C 5.906 540 1 535.094 1 529 L 1 12 C 1 5.906 5.906 1 12 1 z " />
</svg>
