<?xml version="1.0" encoding="UTF-8" standalone="no"?>
<!-- Created with Inkscape (http://www.inkscape.org/) -->

<svg
   width="397"
   height="272"
   viewBox="0 0 105.03958 71.966667"
   version="1.1"
   id="svg82670"
   xml:space="preserve"
   xmlns="http://www.w3.org/2000/svg"
   xmlns:svg="http://www.w3.org/2000/svg"><defs
     id="defs82667" /><g
     id="layer1"
     transform="translate(-262.59792,-73.906951)" /><g
     aria-label="Clipboard"
     id="text86441"
     style="font-weight:600;font-size:5.64444px;line-height:1.25;font-family:Poppins;-inkscape-font-specification:'Poppins, Semi-Bold';stroke-width:0.053"
     transform="translate(-4.7624995,-4.7624996)"><path
       d="m 9.9289282,14.111421 q 0,-0.581377 0.2596438,-1.038577 Q 10.453861,12.61 10.905416,12.356 q 0.4572,-0.259644 1.021644,-0.259644 0.6604,0 1.15711,0.338666 0.496711,0.338667 0.694266,0.936977 h -0.908754 q -0.135467,-0.282222 -0.383822,-0.423333 -0.242711,-0.141111 -0.564444,-0.141111 -0.344311,0 -0.615244,0.163689 -0.265289,0.158044 -0.417689,0.451555 -0.146755,0.293511 -0.146755,0.688622 0,0.389466 0.146755,0.688622 0.1524,0.293511 0.417689,0.457199 0.270933,0.158045 0.615244,0.158045 0.321733,0 0.564444,-0.141111 0.248355,-0.146756 0.383822,-0.428978 h 0.908754 q -0.197555,0.603955 -0.694266,0.942622 -0.491066,0.333022 -1.15711,0.333022 -0.564444,0 -1.021644,-0.254 -0.451555,-0.259644 -0.716844,-0.716844 -0.2596438,-0.4572 -0.2596438,-1.038577 z"
       id="path87030" /><path
       d="m 15.245989,11.910089 v 4.176886 h -0.790222 v -4.176886 z"
       id="path87032" /><path
       d="m 16.425676,12.587422 q -0.208844,0 -0.349955,-0.129822 -0.135467,-0.135466 -0.135467,-0.333022 0,-0.197555 0.135467,-0.327377 0.141111,-0.135467 0.349955,-0.135467 0.208845,0 0.344311,0.135467 0.141111,0.129822 0.141111,0.327377 0,0.197556 -0.141111,0.333022 -0.135466,0.129822 -0.344311,0.129822 z m 0.389467,0.372533 v 3.12702 h -0.790222 v -3.12702 z"
       id="path87034" /><path
       d="m 18.384296,13.41151 q 0.1524,-0.214488 0.417689,-0.355599 0.270933,-0.146756 0.615244,-0.146756 0.400755,0 0.722488,0.197556 0.327377,0.197555 0.513644,0.564444 0.191911,0.361244 0.191911,0.841021 0,0.479778 -0.191911,0.852311 -0.186267,0.366888 -0.513644,0.570088 -0.321733,0.2032 -0.722488,0.2032 -0.344311,0 -0.6096,-0.141111 -0.259644,-0.141111 -0.423333,-0.3556 v 1.936043 h -0.790222 v -4.617152 h 0.790222 z m 1.653821,1.100666 q 0,-0.282222 -0.118533,-0.485422 -0.112889,-0.208844 -0.3048,-0.316088 -0.186267,-0.107245 -0.4064,-0.107245 -0.214489,0 -0.406399,0.112889 -0.186267,0.107245 -0.3048,0.316089 -0.112889,0.208844 -0.112889,0.491066 0,0.282222 0.112889,0.491066 0.118533,0.208845 0.3048,0.321734 0.19191,0.107244 0.406399,0.107244 0.220133,0 0.4064,-0.112889 0.191911,-0.112889 0.3048,-0.321733 0.118533,-0.208844 0.118533,-0.496711 z"
       id="path87036" /><path
       d="m 22.211224,13.417155 q 0.1524,-0.225778 0.417689,-0.366889 0.270933,-0.141111 0.615244,-0.141111 0.400755,0 0.722488,0.197556 0.327378,0.197555 0.513644,0.564444 0.191911,0.361244 0.191911,0.841021 0,0.479778 -0.191911,0.852311 -0.186266,0.366888 -0.513644,0.570088 -0.321733,0.2032 -0.722488,0.2032 -0.349956,0 -0.615244,-0.135467 -0.259645,-0.141111 -0.417689,-0.361244 v 0.445911 h -0.790222 v -4.176886 h 0.790222 z m 1.653821,1.095021 q 0,-0.282222 -0.118533,-0.485422 -0.112889,-0.208844 -0.3048,-0.316088 -0.186266,-0.107245 -0.4064,-0.107245 -0.214488,0 -0.406399,0.112889 -0.186267,0.107245 -0.3048,0.316089 -0.112889,0.208844 -0.112889,0.491066 0,0.282222 0.112889,0.491066 0.118533,0.208845 0.3048,0.321734 0.191911,0.107244 0.406399,0.107244 0.220134,0 0.4064,-0.112889 0.191911,-0.112889 0.3048,-0.321733 0.118533,-0.208844 0.118533,-0.496711 z"
       id="path87038" /><path
       d="m 26.636462,16.137775 q -0.451555,0 -0.812799,-0.197555 -0.361245,-0.2032 -0.570089,-0.570089 -0.2032,-0.366888 -0.2032,-0.846666 0,-0.479777 0.208845,-0.846666 0.214488,-0.366888 0.581377,-0.564444 0.366888,-0.2032 0.818444,-0.2032 0.451555,0 0.818444,0.2032 0.366888,0.197556 0.575732,0.564444 0.214489,0.366889 0.214489,0.846666 0,0.479778 -0.220133,0.846666 -0.214489,0.366889 -0.587022,0.570089 -0.366888,0.197555 -0.824088,0.197555 z m 0,-0.688622 q 0.214489,0 0.400755,-0.1016 0.191911,-0.107244 0.3048,-0.316088 0.112889,-0.208845 0.112889,-0.508 0,-0.445911 -0.237067,-0.682977 -0.231422,-0.242711 -0.570088,-0.242711 -0.338667,0 -0.570089,0.242711 -0.225777,0.237066 -0.225777,0.682977 0,0.445911 0.220133,0.688622 0.225778,0.237066 0.564444,0.237066 z"
       id="path87040" /><path
       d="m 28.645886,14.512176 q 0,-0.474133 0.186267,-0.841021 0.191911,-0.366889 0.513644,-0.564444 0.327377,-0.197556 0.728132,-0.197556 0.349956,0 0.6096,0.141111 0.265289,0.141111 0.423333,0.3556 v -0.445911 h 0.795866 v 3.12702 h -0.795866 v -0.4572 q -0.1524,0.220134 -0.423333,0.366889 -0.265289,0.141111 -0.615244,0.141111 -0.395111,0 -0.722488,-0.2032 -0.321733,-0.2032 -0.513644,-0.570088 -0.186267,-0.372533 -0.186267,-0.852311 z m 2.460976,0.01129 q 0,-0.287866 -0.112889,-0.491066 -0.112889,-0.208844 -0.3048,-0.316089 -0.191911,-0.112889 -0.412044,-0.112889 -0.220133,0 -0.406399,0.107245 -0.186267,0.107244 -0.3048,0.316088 -0.112889,0.2032 -0.112889,0.485422 0,0.282222 0.112889,0.496711 0.118533,0.208844 0.3048,0.321733 0.191911,0.112889 0.406399,0.112889 0.220133,0 0.412044,-0.107244 0.191911,-0.112889 0.3048,-0.316089 0.112889,-0.208844 0.112889,-0.496711 z"
       id="path87042" /><path
       d="m 33.466235,13.445377 q 0.1524,-0.248355 0.395111,-0.389466 Q 34.109701,12.9148 34.42579,12.9148 v 0.829732 h -0.208845 q -0.372533,0 -0.564444,0.174978 -0.186266,0.174978 -0.186266,0.6096 v 1.557865 h -0.790222 v -3.12702 h 0.790222 z"
       id="path87044" /><path
       d="m 34.753163,14.512176 q 0,-0.474133 0.186266,-0.841021 0.191911,-0.366889 0.519289,-0.564444 0.327378,-0.197556 0.728133,-0.197556 0.3048,0 0.581377,0.135467 0.276578,0.129822 0.440266,0.349955 v -1.484488 h 0.801511 v 4.176886 h -0.801511 v -0.462844 q -0.146755,0.231422 -0.412044,0.372533 -0.265288,0.141111 -0.615244,0.141111 -0.39511,0 -0.722488,-0.2032 -0.327378,-0.2032 -0.519289,-0.570088 -0.186266,-0.372533 -0.186266,-0.852311 z m 2.460976,0.01129 q 0,-0.287866 -0.112889,-0.491066 -0.112889,-0.208844 -0.3048,-0.316089 -0.191911,-0.112889 -0.412044,-0.112889 -0.220133,0 -0.4064,0.107245 -0.186266,0.107244 -0.304799,0.316088 -0.112889,0.2032 -0.112889,0.485422 0,0.282222 0.112889,0.496711 0.118533,0.208844 0.304799,0.321733 0.191911,0.112889 0.4064,0.112889 0.220133,0 0.412044,-0.107244 0.191911,-0.112889 0.3048,-0.316089 0.112889,-0.208844 0.112889,-0.496711 z"
       id="path87046" /></g><g
     aria-label="Edit clipboard content in the textarea below."
     id="text86601"
     style="font-size:3.88056px;line-height:1.25;font-family:Poppins;-inkscape-font-specification:'Poppins, Normal';stroke-width:0.053"
     transform="translate(-4.7624995,-4.7624996)"><path
       d="m 10.439486,22.193907 v 0.904171 h 0.985662 v 0.291042 h -0.985662 v 0.931334 h 1.102079 v 0.291042 h -1.45521 v -2.708631 h 1.45521 v 0.291042 z"
       id="path87049" /><path
       d="m 11.945145,23.540461 q 0,-0.325967 0.131939,-0.570442 0.131939,-0.248356 0.360892,-0.384175 0.232834,-0.13582 0.519995,-0.13582 0.248356,0 0.461787,0.116417 0.213431,0.112536 0.325967,0.298803 v -1.125362 h 0.357011 v 2.871614 h -0.357011 v -0.399698 q -0.104775,0.190148 -0.310445,0.314326 -0.20567,0.120297 -0.481189,0.120297 -0.283281,0 -0.516115,-0.1397 -0.228953,-0.1397 -0.360892,-0.391937 -0.131939,-0.252236 -0.131939,-0.574323 z m 1.80058,0.0039 q 0,-0.240595 -0.09701,-0.4191 -0.09701,-0.178506 -0.263878,-0.27164 -0.162984,-0.09701 -0.360892,-0.09701 -0.197909,0 -0.360892,0.09313 -0.162984,0.09313 -0.259998,0.271639 -0.09701,0.178506 -0.09701,0.4191 0,0.244476 0.09701,0.426862 0.09701,0.178506 0.259998,0.27552 0.162983,0.09313 0.360892,0.09313 0.197908,0 0.360892,-0.09313 0.166864,-0.09701 0.263878,-0.27552 0.09701,-0.182386 0.09701,-0.422981 z"
       id="path87051" /><path
       d="m 14.882731,22.139579 q -0.100894,0 -0.170744,-0.06985 -0.06985,-0.06985 -0.06985,-0.170744 0,-0.100895 0.06985,-0.170745 0.06985,-0.06985 0.170744,-0.06985 0.09701,0 0.162984,0.06985 0.06985,0.06985 0.06985,0.170745 0,0.100894 -0.06985,0.170744 -0.06597,0.06985 -0.162984,0.06985 z m 0.170745,0.34537 v 2.126547 h -0.353131 v -2.126547 z"
       id="path87053" /><path
       d="m 16.085706,22.775991 v 1.253421 q 0,0.155222 0.06597,0.221192 0.06597,0.06209 0.228953,0.06209 h 0.259998 v 0.298803 H 16.32242 q -0.294922,0 -0.442384,-0.13582 -0.147461,-0.135819 -0.147461,-0.446264 v -1.253421 h -0.27552 V 22.48495 h 0.27552 v -0.535517 h 0.353131 v 0.535517 h 0.55492 v 0.291042 z"
       id="path87055" /><path
       d="m 17.97166,23.544342 q 0,-0.329848 0.131939,-0.574323 0.131939,-0.248356 0.364773,-0.384175 0.236714,-0.13582 0.539398,-0.13582 0.391936,0 0.644173,0.190148 0.256117,0.190147 0.337608,0.527756 h -0.380294 q -0.05433,-0.194028 -0.213431,-0.306565 -0.155223,-0.112536 -0.388056,-0.112536 -0.302684,0 -0.488951,0.20955 -0.186267,0.20567 -0.186267,0.585965 0,0.384175 0.186267,0.593726 0.186267,0.20955 0.488951,0.20955 0.232833,0 0.388056,-0.108656 0.155222,-0.108655 0.213431,-0.310445 h 0.380294 q -0.08537,0.325967 -0.341489,0.523876 -0.256117,0.194028 -0.640292,0.194028 -0.302684,0 -0.539398,-0.13582 Q 18.235538,24.374782 18.103599,24.126426 17.97166,23.87807 17.97166,23.544342 Z"
       id="path87057" /><path
       d="m 20.812231,21.739882 v 2.871614 h -0.35313 v -2.871614 z"
       id="path87059" /><path
       d="m 21.596105,22.139579 q -0.100894,0 -0.170744,-0.06985 -0.06985,-0.06985 -0.06985,-0.170744 0,-0.100895 0.06985,-0.170745 0.06985,-0.06985 0.170744,-0.06985 0.09701,0 0.162984,0.06985 0.06985,0.06985 0.06985,0.170745 0,0.100894 -0.06985,0.170744 -0.06597,0.06985 -0.162984,0.06985 z m 0.170745,0.34537 v 2.126547 h -0.353131 v -2.126547 z"
       id="path87061" /><path
       d="m 22.721469,22.876886 q 0.104775,-0.182387 0.310445,-0.302684 0.20955,-0.124178 0.48507,-0.124178 0.283281,0 0.512234,0.13582 0.232834,0.135819 0.364773,0.384175 0.131939,0.244475 0.131939,0.570442 0,0.322087 -0.131939,0.574323 -0.131939,0.252237 -0.364773,0.391937 -0.228953,0.1397 -0.512234,0.1397 -0.271639,0 -0.481189,-0.120297 -0.20567,-0.124178 -0.314326,-0.306565 v 1.400883 h -0.353131 v -3.135493 h 0.353131 z m 1.443569,0.663575 q 0,-0.240594 -0.09701,-0.4191 -0.09701,-0.178506 -0.263878,-0.271639 -0.162984,-0.09313 -0.360893,-0.09313 -0.194028,0 -0.360892,0.09701 -0.162983,0.09313 -0.263878,0.27552 -0.09701,0.178506 -0.09701,0.41522 0,0.240595 0.09701,0.422981 0.100895,0.178506 0.263878,0.27552 0.166864,0.09313 0.360892,0.09313 0.197909,0 0.360893,-0.09313 0.166864,-0.09701 0.263878,-0.27552 0.09701,-0.182386 0.09701,-0.426862 z"
       id="path87063" /><path
       d="m 25.34473,22.880766 q 0.108655,-0.190147 0.318206,-0.310445 0.20955,-0.120297 0.477309,-0.120297 0.287161,0 0.516114,0.13582 0.228953,0.135819 0.360892,0.384175 0.131939,0.244475 0.131939,0.570442 0,0.322087 -0.131939,0.574323 -0.131939,0.252237 -0.364772,0.391937 -0.228954,0.1397 -0.512234,0.1397 -0.27552,0 -0.48507,-0.120297 -0.20567,-0.120298 -0.310445,-0.306565 v 0.391937 h -0.353131 v -2.871614 h 0.353131 z m 1.443568,0.659695 q 0,-0.240594 -0.09701,-0.4191 -0.09701,-0.178506 -0.263878,-0.271639 -0.162983,-0.09313 -0.360892,-0.09313 -0.194028,0 -0.360892,0.09701 -0.162984,0.09313 -0.263878,0.27552 -0.09701,0.178506 -0.09701,0.41522 0,0.240595 0.09701,0.422981 0.100894,0.178506 0.263878,0.27552 0.166864,0.09313 0.360892,0.09313 0.197909,0 0.360892,-0.09313 0.166864,-0.09701 0.263878,-0.27552 0.09701,-0.182386 0.09701,-0.426862 z"
       id="path87065" /><path
       d="m 28.542314,24.646421 q -0.298803,0 -0.543278,-0.13582 -0.240595,-0.135819 -0.380295,-0.384175 -0.13582,-0.252236 -0.13582,-0.582084 0,-0.325967 0.1397,-0.574323 0.143581,-0.252236 0.388056,-0.384175 0.244476,-0.13582 0.547159,-0.13582 0.302684,0 0.547159,0.13582 0.244476,0.131939 0.384176,0.380295 0.14358,0.248355 0.14358,0.578203 0,0.329848 -0.147461,0.582084 -0.143581,0.248356 -0.391936,0.384175 -0.248356,0.13582 -0.55104,0.13582 z m 0,-0.310445 q 0.190148,0 0.357012,-0.08925 0.166864,-0.08925 0.267758,-0.267758 0.104775,-0.178506 0.104775,-0.434623 0,-0.256117 -0.100894,-0.434623 -0.100895,-0.178505 -0.263878,-0.263878 -0.162984,-0.08925 -0.353131,-0.08925 -0.194028,0 -0.357012,0.08925 -0.159103,0.08537 -0.256117,0.263878 -0.09701,0.178506 -0.09701,0.434623 0,0.259998 0.09313,0.438503 0.09701,0.178506 0.256117,0.267759 0.159103,0.08537 0.34925,0.08537 z"
       id="path87067" /><path
       d="m 29.966476,23.540461 q 0,-0.325967 0.131939,-0.570442 0.131939,-0.248356 0.360892,-0.384175 0.232834,-0.13582 0.516115,-0.13582 0.2794,0 0.48507,0.120297 0.205669,0.120298 0.306564,0.302684 v -0.388056 h 0.357011 v 2.126547 h -0.357011 v -0.395817 q -0.104775,0.186267 -0.314325,0.310445 -0.20567,0.120297 -0.48119,0.120297 -0.283281,0 -0.512234,-0.1397 -0.228953,-0.1397 -0.360892,-0.391937 -0.131939,-0.252236 -0.131939,-0.574323 z m 1.80058,0.0039 q 0,-0.240595 -0.09701,-0.4191 -0.09701,-0.178506 -0.263878,-0.27164 -0.162984,-0.09701 -0.360892,-0.09701 -0.197909,0 -0.360892,0.09313 -0.162984,0.09313 -0.259998,0.271639 -0.09701,0.178506 -0.09701,0.4191 0,0.244476 0.09701,0.426862 0.09701,0.178506 0.259998,0.27552 0.162983,0.09313 0.360892,0.09313 0.197908,0 0.360892,-0.09313 0.166864,-0.09701 0.263878,-0.27552 0.09701,-0.182386 0.09701,-0.422981 z"
       id="path87069" /><path
       d="m 33.074807,22.830319 q 0.09313,-0.182386 0.263878,-0.283281 0.174625,-0.100894 0.422981,-0.100894 v 0.364772 h -0.09313 q -0.593725,0 -0.593725,0.644173 v 1.156407 H 32.72168 v -2.126547 h 0.353131 z"
       id="path87071" /><path
       d="m 34.037183,23.540461 q 0,-0.325967 0.131939,-0.570442 0.13194,-0.248356 0.360893,-0.384175 0.232833,-0.13582 0.519995,-0.13582 0.248355,0 0.461786,0.116417 0.213431,0.112536 0.325967,0.298803 v -1.125362 h 0.357012 v 2.871614 h -0.357012 v -0.399698 q -0.104775,0.190148 -0.310445,0.314326 -0.205669,0.120297 -0.481189,0.120297 -0.283281,0 -0.516114,-0.1397 -0.228953,-0.1397 -0.360893,-0.391937 -0.131939,-0.252236 -0.131939,-0.574323 z m 1.80058,0.0039 q 0,-0.240595 -0.09701,-0.4191 -0.09701,-0.178506 -0.263878,-0.27164 -0.162983,-0.09701 -0.360892,-0.09701 -0.197908,0 -0.360892,0.09313 -0.162983,0.09313 -0.259997,0.271639 -0.09701,0.178506 -0.09701,0.4191 0,0.244476 0.09701,0.426862 0.09701,0.178506 0.259997,0.27552 0.162984,0.09313 0.360892,0.09313 0.197909,0 0.360892,-0.09313 0.166864,-0.09701 0.263878,-0.27552 0.09701,-0.182386 0.09701,-0.422981 z"
       id="path87073" /><path
       d="m 37.696554,23.544342 q 0,-0.329848 0.131939,-0.574323 0.131939,-0.248356 0.364773,-0.384175 0.236714,-0.13582 0.539397,-0.13582 0.391937,0 0.644173,0.190148 0.256117,0.190147 0.337609,0.527756 H 39.33415 q -0.05433,-0.194028 -0.213431,-0.306565 -0.155222,-0.112536 -0.388056,-0.112536 -0.302683,0 -0.48895,0.20955 -0.186267,0.20567 -0.186267,0.585965 0,0.384175 0.186267,0.593726 0.186267,0.20955 0.48895,0.20955 0.232834,0 0.388056,-0.108656 0.155223,-0.108655 0.213431,-0.310445 h 0.380295 q -0.08537,0.325967 -0.341489,0.523876 -0.256117,0.194028 -0.640293,0.194028 -0.302683,0 -0.539397,-0.13582 -0.232834,-0.135819 -0.364773,-0.384175 -0.131939,-0.248356 -0.131939,-0.582084 z"
       id="path87075" /><path
       d="m 41.111448,24.646421 q -0.298803,0 -0.543278,-0.13582 -0.240595,-0.135819 -0.380295,-0.384175 -0.13582,-0.252236 -0.13582,-0.582084 0,-0.325967 0.1397,-0.574323 0.143581,-0.252236 0.388056,-0.384175 0.244475,-0.13582 0.547159,-0.13582 0.302684,0 0.547159,0.13582 0.244475,0.131939 0.384176,0.380295 0.14358,0.248355 0.14358,0.578203 0,0.329848 -0.147461,0.582084 -0.143581,0.248356 -0.391937,0.384175 -0.248355,0.13582 -0.551039,0.13582 z m 0,-0.310445 q 0.190147,0 0.357011,-0.08925 0.166864,-0.08925 0.267759,-0.267758 0.104775,-0.178506 0.104775,-0.434623 0,-0.256117 -0.100894,-0.434623 -0.100895,-0.178505 -0.263878,-0.263878 -0.162984,-0.08925 -0.353131,-0.08925 -0.194028,0 -0.357012,0.08925 -0.159103,0.08537 -0.256117,0.263878 -0.09701,0.178506 -0.09701,0.434623 0,0.259998 0.09313,0.438503 0.09701,0.178506 0.256117,0.267759 0.159102,0.08537 0.34925,0.08537 z"
       id="path87077" /><path
       d="m 43.70366,22.446144 q 0.388056,0 0.628651,0.236714 0.240595,0.232833 0.240595,0.675217 v 1.253421 h -0.349251 v -1.202974 q 0,-0.318206 -0.159103,-0.48507 -0.159103,-0.170744 -0.434622,-0.170744 -0.279401,0 -0.446265,0.174625 -0.162983,0.174625 -0.162983,0.508353 v 1.17581 h -0.353131 v -2.126547 h 0.353131 v 0.302684 q 0.104775,-0.162984 0.283281,-0.252237 0.182386,-0.08925 0.399697,-0.08925 z"
       id="path87079" /><path
       d="m 45.581848,22.775991 v 1.253421 q 0,0.155222 0.06597,0.221192 0.06597,0.06209 0.228953,0.06209 h 0.259998 v 0.298803 h -0.318206 q -0.294923,0 -0.442384,-0.13582 -0.147461,-0.135819 -0.147461,-0.446264 v -1.253421 h -0.27552 V 22.48495 h 0.27552 v -0.535517 h 0.353131 v 0.535517 h 0.55492 v 0.291042 z"
       id="path87081" /><path
       d="m 48.503911,23.466731 q 0,0.100894 -0.01164,0.213431 h -1.699685 q 0.0194,0.314325 0.213431,0.492831 0.197908,0.174625 0.477309,0.174625 0.228953,0 0.380294,-0.104775 0.155223,-0.108656 0.217312,-0.287162 h 0.380295 q -0.08537,0.306565 -0.34149,0.500593 -0.256117,0.190147 -0.636411,0.190147 -0.302684,0 -0.543279,-0.13582 -0.236714,-0.135819 -0.372534,-0.384175 -0.135819,-0.252236 -0.135819,-0.582084 0,-0.329848 0.131939,-0.578203 0.131939,-0.248356 0.368653,-0.380295 0.240595,-0.13582 0.55104,-0.13582 0.302683,0 0.535517,0.131939 0.232833,0.131939 0.357011,0.364773 0.128059,0.228953 0.128059,0.519995 z M 48.139138,23.393 q 0,-0.201789 -0.08925,-0.34537 -0.08925,-0.147461 -0.244475,-0.221192 -0.151342,-0.07761 -0.337609,-0.07761 -0.267758,0 -0.457906,0.170745 -0.186267,0.170744 -0.213431,0.473428 z"
       id="path87083" /><path
       d="m 50.005693,22.446144 q 0.388056,0 0.628651,0.236714 0.240594,0.232833 0.240594,0.675217 v 1.253421 h -0.34925 v -1.202974 q 0,-0.318206 -0.159103,-0.48507 -0.159103,-0.170744 -0.434623,-0.170744 -0.2794,0 -0.446264,0.174625 -0.162984,0.174625 -0.162984,0.508353 v 1.17581 h -0.353131 v -2.126547 h 0.353131 v 0.302684 q 0.104775,-0.162984 0.283281,-0.252237 0.182386,-0.08925 0.399698,-0.08925 z"
       id="path87085" /><path
       d="m 51.88388,22.775991 v 1.253421 q 0,0.155222 0.06597,0.221192 0.06597,0.06209 0.228953,0.06209 H 52.4388 v 0.298803 h -0.318206 q -0.294922,0 -0.442383,-0.13582 -0.147462,-0.135819 -0.147462,-0.446264 V 22.775991 H 51.25523 v -0.291042 h 0.275519 v -0.535517 h 0.353131 v 0.535517 h 0.55492 v 0.291042 z"
       id="path87087" /><path
       d="m 54.08416,22.139579 q -0.100895,0 -0.170745,-0.06985 -0.06985,-0.06985 -0.06985,-0.170744 0,-0.100895 0.06985,-0.170745 0.06985,-0.06985 0.170745,-0.06985 0.09701,0 0.162983,0.06985 0.06985,0.06985 0.06985,0.170745 0,0.100894 -0.06985,0.170744 -0.06597,0.06985 -0.162983,0.06985 z m 0.170744,0.34537 v 2.126547 h -0.353131 v -2.126547 z"
       id="path87089" /><path
       d="m 55.892503,22.446144 q 0.388056,0 0.628651,0.236714 0.240595,0.232833 0.240595,0.675217 v 1.253421 h -0.349251 v -1.202974 q 0,-0.318206 -0.159103,-0.48507 -0.159103,-0.170744 -0.434623,-0.170744 -0.2794,0 -0.446264,0.174625 -0.162983,0.174625 -0.162983,0.508353 v 1.17581 h -0.353131 v -2.126547 h 0.353131 v 0.302684 q 0.104775,-0.162984 0.28328,-0.252237 0.182387,-0.08925 0.399698,-0.08925 z"
       id="path87091" /><path
       d="m 58.806801,22.775991 v 1.253421 q 0,0.155222 0.06597,0.221192 0.06597,0.06209 0.228953,0.06209 h 0.259998 v 0.298803 h -0.318206 q -0.294923,0 -0.442384,-0.13582 -0.147461,-0.135819 -0.147461,-0.446264 v -1.253421 h -0.27552 V 22.48495 h 0.27552 v -0.535517 h 0.353131 v 0.535517 h 0.55492 v 0.291042 z"
       id="path87093" /><path
       d="m 60.844096,22.446144 q 0.240595,0 0.434623,0.104775 0.194028,0.100894 0.302683,0.306564 0.112536,0.20567 0.112536,0.500592 v 1.253421 h -0.34925 v -1.202974 q 0,-0.318206 -0.159103,-0.48507 -0.159103,-0.170744 -0.434623,-0.170744 -0.2794,0 -0.446264,0.174625 -0.162984,0.174625 -0.162984,0.508353 v 1.17581 h -0.35313 v -2.871614 h 0.35313 v 1.047751 q 0.104776,-0.162984 0.287162,-0.252237 0.186267,-0.08925 0.41522,-0.08925 z"
       id="path87095" /><path
       d="m 64.212418,23.466731 q 0,0.100894 -0.01164,0.213431 h -1.699686 q 0.0194,0.314325 0.213431,0.492831 0.197909,0.174625 0.477309,0.174625 0.228953,0 0.380295,-0.104775 0.155222,-0.108656 0.217311,-0.287162 h 0.380295 q -0.08537,0.306565 -0.341489,0.500593 -0.256117,0.190147 -0.636412,0.190147 -0.302684,0 -0.543278,-0.13582 Q 62.41184,24.374782 62.27602,24.126426 62.1402,23.87419 62.1402,23.544342 q 0,-0.329848 0.131939,-0.578203 0.131939,-0.248356 0.368654,-0.380295 0.240594,-0.13582 0.551039,-0.13582 0.302684,0 0.535517,0.131939 0.232834,0.131939 0.357012,0.364773 0.128058,0.228953 0.128057,0.519995 z M 63.847646,23.393 q 0,-0.201789 -0.08925,-0.34537 -0.08925,-0.147461 -0.244475,-0.221192 -0.151342,-0.07761 -0.337609,-0.07761 -0.267759,0 -0.457906,0.170745 -0.186267,0.170744 -0.213431,0.473428 z"
       id="path87097" /><path
       d="m 66.144943,22.775991 v 1.253421 q 0,0.155222 0.06597,0.221192 0.06597,0.06209 0.228953,0.06209 h 0.259998 v 0.298803 h -0.318206 q -0.294922,0 -0.442384,-0.13582 -0.147461,-0.135819 -0.147461,-0.446264 v -1.253421 h -0.27552 V 22.48495 h 0.27552 v -0.535517 h 0.353131 v 0.535517 h 0.55492 v 0.291042 z"
       id="path87099" /><path
       d="m 69.067006,23.466731 q 0,0.100894 -0.01164,0.213431 h -1.699685 q 0.0194,0.314325 0.213431,0.492831 0.197908,0.174625 0.477309,0.174625 0.228953,0 0.380295,-0.104775 0.155222,-0.108656 0.217311,-0.287162 h 0.380295 q -0.08537,0.306565 -0.34149,0.500593 -0.256116,0.190147 -0.636411,0.190147 -0.302684,0 -0.543279,-0.13582 -0.236714,-0.135819 -0.372534,-0.384175 -0.135819,-0.252236 -0.135819,-0.582084 0,-0.329848 0.131939,-0.578203 0.131939,-0.248356 0.368653,-0.380295 0.240595,-0.13582 0.55104,-0.13582 0.302683,0 0.535517,0.131939 0.232834,0.131939 0.357011,0.364773 0.128059,0.228953 0.128059,0.519995 z M 68.702233,23.393 q 0,-0.201789 -0.08925,-0.34537 -0.08925,-0.147461 -0.244475,-0.221192 -0.151342,-0.07761 -0.337609,-0.07761 -0.267758,0 -0.457906,0.170745 -0.186267,0.170744 -0.21343,0.473428 z"
       id="path87101" /><path
       d="m 70.642515,24.611496 -0.504473,-0.791634 -0.48507,0.791634 h -0.368653 l 0.686859,-1.055512 -0.686859,-1.071035 h 0.399697 l 0.504473,0.787754 0.48119,-0.787754 h 0.368653 l -0.682979,1.051632 0.686859,1.074915 z"
       id="path87103" /><path
       d="m 71.822204,22.775991 v 1.253421 q 0,0.155222 0.06597,0.221192 0.06597,0.06209 0.228953,0.06209 h 0.259997 v 0.298803 h -0.318206 q -0.294922,0 -0.442383,-0.13582 -0.147462,-0.135819 -0.147462,-0.446264 V 22.775992 H 71.193554 V 22.48495 h 0.275519 v -0.535517 h 0.353131 v 0.535517 h 0.55492 v 0.291042 z"
       id="path87105" /><path
       d="m 72.672048,23.540461 q 0,-0.325967 0.131939,-0.570442 0.131939,-0.248356 0.360892,-0.384175 0.232834,-0.13582 0.516115,-0.13582 0.2794,0 0.48507,0.120297 0.205669,0.120298 0.306564,0.302684 v -0.388056 h 0.357012 v 2.126547 h -0.357012 v -0.395817 q -0.104775,0.186267 -0.314325,0.310445 -0.20567,0.120297 -0.48119,0.120297 -0.283281,0 -0.512234,-0.1397 -0.228953,-0.1397 -0.360892,-0.391937 -0.131939,-0.252236 -0.131939,-0.574323 z m 1.80058,0.0039 q 0,-0.240595 -0.09701,-0.4191 -0.09701,-0.178506 -0.263878,-0.27164 -0.162984,-0.09701 -0.360892,-0.09701 -0.197909,0 -0.360892,0.09313 -0.162984,0.09313 -0.259998,0.271639 -0.09701,0.178506 -0.09701,0.4191 0,0.244476 0.09701,0.426862 0.09701,0.178506 0.259998,0.27552 0.162983,0.09313 0.360892,0.09313 0.197908,0 0.360892,-0.09313 0.166864,-0.09701 0.263878,-0.27552 0.09701,-0.182386 0.09701,-0.422981 z"
       id="path87107" /><path
       d="m 75.780383,22.830319 q 0.09313,-0.182386 0.263878,-0.283281 0.174625,-0.100894 0.422981,-0.100894 v 0.364772 h -0.09313 q -0.593725,0 -0.593725,0.644173 v 1.156407 h -0.353131 v -2.126547 h 0.353131 z"
       id="path87109" /><path
       d="m 78.814973,23.466731 q 0,0.100894 -0.01164,0.213431 h -1.699685 q 0.0194,0.314325 0.213431,0.492831 0.197908,0.174625 0.477308,0.174625 0.228953,0 0.380295,-0.104775 0.155223,-0.108656 0.217312,-0.287162 h 0.380295 q -0.08537,0.306565 -0.34149,0.500593 -0.256117,0.190147 -0.636412,0.190147 -0.302683,0 -0.543278,-0.13582 -0.236714,-0.135819 -0.372534,-0.384175 -0.135819,-0.252236 -0.135819,-0.582084 0,-0.329848 0.131939,-0.578203 0.131939,-0.248356 0.368653,-0.380295 0.240595,-0.13582 0.551039,-0.13582 0.302684,0 0.535518,0.131939 0.232833,0.131939 0.357011,0.364773 0.128059,0.228953 0.128059,0.519995 z M 78.4502,23.393 q 0,-0.201789 -0.08925,-0.34537 -0.08925,-0.147461 -0.244475,-0.221192 -0.151342,-0.07761 -0.337609,-0.07761 -0.267758,0 -0.457906,0.170745 -0.186267,0.170744 -0.213431,0.473428 z"
       id="path87111" /><path
       d="m 79.148706,23.540461 q 0,-0.325967 0.131939,-0.570442 0.131939,-0.248356 0.360892,-0.384175 0.232834,-0.13582 0.516115,-0.13582 0.2794,0 0.48507,0.120297 0.205669,0.120298 0.306564,0.302684 v -0.388056 h 0.357011 v 2.126547 h -0.357011 v -0.395817 q -0.104775,0.186267 -0.314325,0.310445 -0.20567,0.120297 -0.48119,0.120297 -0.283281,0 -0.512234,-0.1397 -0.228953,-0.1397 -0.360892,-0.391937 -0.131939,-0.252236 -0.131939,-0.574323 z m 1.80058,0.0039 q 0,-0.240595 -0.09701,-0.4191 -0.09701,-0.178506 -0.263878,-0.27164 -0.162984,-0.09701 -0.360892,-0.09701 -0.197909,0 -0.360892,0.09313 -0.162984,0.09313 -0.259998,0.271639 -0.09701,0.178506 -0.09701,0.4191 0,0.244476 0.09701,0.426862 0.09701,0.178506 0.259998,0.27552 0.162983,0.09313 0.360892,0.09313 0.197908,0 0.360892,-0.09313 0.166864,-0.09701 0.263878,-0.27552 0.09701,-0.182386 0.09701,-0.422981 z"
       id="path87113" /><path
       d="m 83.293147,22.880766 q 0.108655,-0.190147 0.318205,-0.310445 0.209551,-0.120297 0.477309,-0.120297 0.287162,0 0.516115,0.13582 0.228953,0.135819 0.360892,0.384175 0.131939,0.244475 0.131939,0.570442 0,0.322087 -0.131939,0.574323 -0.131939,0.252237 -0.364773,0.391937 -0.228953,0.1397 -0.512234,0.1397 -0.275519,0 -0.48507,-0.120297 -0.205669,-0.120298 -0.310444,-0.306565 v 0.391937 h -0.353131 v -2.871614 h 0.353131 z m 1.443568,0.659695 q 0,-0.240594 -0.09701,-0.4191 -0.09701,-0.178506 -0.263878,-0.271639 -0.162984,-0.09313 -0.360892,-0.09313 -0.194028,0 -0.360892,0.09701 -0.162984,0.09313 -0.263878,0.27552 -0.09701,0.178506 -0.09701,0.41522 0,0.240595 0.09701,0.422981 0.100894,0.178506 0.263878,0.27552 0.166864,0.09313 0.360892,0.09313 0.197908,0 0.360892,-0.09313 0.166864,-0.09701 0.263878,-0.27552 0.09701,-0.182386 0.09701,-0.426862 z"
       id="path87115" /><path
       d="m 87.503556,23.466731 q 0,0.100894 -0.01164,0.213431 h -1.699685 q 0.0194,0.314325 0.213431,0.492831 0.197908,0.174625 0.477309,0.174625 0.228953,0 0.380295,-0.104775 0.155222,-0.108656 0.217311,-0.287162 h 0.380295 q -0.08537,0.306565 -0.341489,0.500593 -0.256117,0.190147 -0.636412,0.190147 -0.302684,0 -0.543279,-0.13582 -0.236714,-0.135819 -0.372533,-0.384175 -0.13582,-0.252236 -0.13582,-0.582084 0,-0.329848 0.131939,-0.578203 0.131939,-0.248356 0.368653,-0.380295 0.240595,-0.13582 0.55104,-0.13582 0.302683,0 0.535517,0.131939 0.232834,0.131939 0.357012,0.364773 0.128058,0.228953 0.128058,0.519995 z M 87.138783,23.393 q 0,-0.201789 -0.08925,-0.34537 -0.08925,-0.147461 -0.244476,-0.221192 -0.151342,-0.07761 -0.337608,-0.07761 -0.267759,0 -0.457907,0.170745 -0.186266,0.170744 -0.21343,0.473428 z"
       id="path87117" /><path
       d="m 88.322359,21.739882 v 2.871614 h -0.35313 v -2.871614 z"
       id="path87119" /><path
       d="m 89.851303,24.646421 q -0.298803,0 -0.543279,-0.13582 -0.240594,-0.135819 -0.380295,-0.384175 -0.135819,-0.252236 -0.135819,-0.582084 0,-0.325967 0.1397,-0.574323 0.143581,-0.252236 0.388056,-0.384175 0.244475,-0.13582 0.547159,-0.13582 0.302684,0 0.547159,0.13582 0.244475,0.131939 0.384175,0.380295 0.143581,0.248355 0.143581,0.578203 0,0.329848 -0.147461,0.582084 -0.143581,0.248356 -0.391937,0.384175 -0.248356,0.13582 -0.551039,0.13582 z m 0,-0.310445 q 0.190147,0 0.357011,-0.08925 0.166864,-0.08925 0.267759,-0.267758 0.104775,-0.178506 0.104775,-0.434623 0,-0.256117 -0.100895,-0.434623 -0.100894,-0.178505 -0.263878,-0.263878 -0.162983,-0.08925 -0.353131,-0.08925 -0.194028,0 -0.357011,0.08925 -0.159103,0.08537 -0.256117,0.263878 -0.09701,0.178506 -0.09701,0.434623 0,0.259998 0.09313,0.438503 0.09701,0.178506 0.256117,0.267759 0.159103,0.08537 0.349251,0.08537 z"
       id="path87121" /><path
       d="m 94.240209,22.484949 -0.663576,2.126547 H 93.21186 l -0.512234,-1.688044 -0.512234,1.688044 H 91.82262 l -0.667456,-2.126547 h 0.360892 l 0.48895,1.785058 0.527756,-1.785058 h 0.360892 l 0.516115,1.788938 0.481189,-1.788938 z"
       id="path87123" /><path
       d="m 94.701996,24.634779 q -0.100894,0 -0.170744,-0.06985 -0.06985,-0.06985 -0.06985,-0.170744 0,-0.100895 0.06985,-0.170745 0.06985,-0.06985 0.170744,-0.06985 0.09701,0 0.162984,0.06985 0.06985,0.06985 0.06985,0.170745 0,0.100894 -0.06985,0.170744 -0.06597,0.06985 -0.162984,0.06985 z"
       id="path87125" /></g><circle
     style="fill:#999999;fill-opacity:1;stroke:none;stroke-width:0.053;stroke-dasharray:none;stroke-opacity:1"
     id="path115752"
     cx="99.351044"
     cy="66.278069"
     r="0.13229166" /><path
     style="fill:none;fill-opacity:1;stroke:#999999;stroke-width:0.264583;stroke-linecap:round;stroke-dasharray:none;stroke-opacity:1"
     d="m 99.351041,65.616665 -0.661459,0.661398"
     id="path116827" /><path
     style="fill:none;fill-opacity:1;stroke:#999999;stroke-width:0.264583;stroke-linecap:round;stroke-dasharray:none;stroke-opacity:1"
     d="m 99.35104,64.822916 -1.455208,1.455209"
     id="path116827-4" /><path
     style="fill:none;fill-opacity:1;stroke:#999999;stroke-width:0.264583;stroke-linecap:round;stroke-dasharray:none;stroke-opacity:1"
     d="m 99.35104,64.029166 -2.248958,2.248963"
     id="path116827-1" /><rect
     style="opacity:1;fill:none;fill-opacity:1;stroke:#dadad7;stroke-width:0.264584;stroke-linejoin:miter;stroke-dasharray:none;stroke-opacity:1"
     id="rect20140"
     width="104.775"
     height="71.70208"
     x="0.132292"
     y="0.132292"
     rx="3.0427084"
     ry="3.0427084" /><rect
     style="opacity:1;fill:none;fill-opacity:1;stroke:#dadad7;stroke-width:0.264583;stroke-linejoin:miter;stroke-dasharray:none;stroke-opacity:1"
     id="rect22376"
     width="95.249992"
     height="42.333336"
     x="4.8947921"
     y="24.738543"
     rx="1.4552083"
     ry="1.4552083" /></svg>
